<?xml version="1.0" encoding="UTF-8"?>
<svg id="Layer_1" data-name="Layer 1" xmlns="http://www.w3.org/2000/svg" xmlns:xlink="http://www.w3.org/1999/xlink" viewBox="0 0 124.84 124.84">
  <defs>
    <linearGradient id="linear-gradient" x1="6.99" y1="63.3" x2="116.25" y2="61.57" gradientUnits="userSpaceOnUse">
      <stop offset="0" stop-color="#d77400"/>
      <stop offset=".26" stop-color="#b24507"/>
      <stop offset=".5" stop-color="#8e180f"/>
      <stop offset=".75" stop-color="#b14608"/>
      <stop offset="1" stop-color="#d77701"/>
    </linearGradient>
    <linearGradient id="linear-gradient-2" x1="6.66" y1="42.47" x2="115.92" y2="40.74" xlink:href="#linear-gradient"/>
    <linearGradient id="linear-gradient-3" x1="7.02" y1="64.72" x2="116.28" y2="62.99" xlink:href="#linear-gradient"/>
    <linearGradient id="linear-gradient-4" x1="7.36" y1="86.06" x2="116.61" y2="84.32" xlink:href="#linear-gradient"/>
    <linearGradient id="linear-gradient-5" x1="7.15" y1="73.33" x2="116.41" y2="71.59" xlink:href="#linear-gradient"/>
    <linearGradient id="linear-gradient-6" x1="7.3" y1="82.56" x2="116.56" y2="80.82" xlink:href="#linear-gradient"/>
    <linearGradient id="linear-gradient-7" x1="7.44" y1="91.52" x2="116.7" y2="89.78" xlink:href="#linear-gradient"/>
    <linearGradient id="linear-gradient-8" x1="7.4" y1="88.6" x2="116.66" y2="86.86" xlink:href="#linear-gradient"/>
    <linearGradient id="linear-gradient-9" x1="7.26" y1="80.09" x2="116.52" y2="78.35" xlink:href="#linear-gradient"/>
    <linearGradient id="linear-gradient-10" x1="7.26" y1="80.2" x2="116.52" y2="78.46" xlink:href="#linear-gradient"/>
    <linearGradient id="linear-gradient-11" x1="7.24" y1="78.88" x2="116.5" y2="77.14" xlink:href="#linear-gradient"/>
    <linearGradient id="linear-gradient-12" x1="7.24" y1="78.62" x2="116.5" y2="76.89" xlink:href="#linear-gradient"/>
    <linearGradient id="linear-gradient-13" x1="6.6" y1="38.19" x2="115.85" y2="36.45" xlink:href="#linear-gradient"/>
    <linearGradient id="linear-gradient-14" x1="6.72" y1="46.1" x2="115.98" y2="44.36" xlink:href="#linear-gradient"/>
    <linearGradient id="linear-gradient-15" x1="6.7" y1="44.63" x2="115.96" y2="42.89" xlink:href="#linear-gradient"/>
    <linearGradient id="linear-gradient-16" x1="6.72" y1="46.14" x2="115.98" y2="44.4" xlink:href="#linear-gradient"/>
    <linearGradient id="linear-gradient-17" x1="6.97" y1="61.61" x2="116.23" y2="59.88" xlink:href="#linear-gradient"/>
    <linearGradient id="linear-gradient-18" x1="6.97" y1="61.81" x2="116.23" y2="60.07" xlink:href="#linear-gradient"/>
    <linearGradient id="linear-gradient-19" x1="7.02" y1="64.91" x2="116.28" y2="63.17" xlink:href="#linear-gradient"/>
    <linearGradient id="linear-gradient-20" x1="6.91" y1="57.92" x2="116.17" y2="56.19" xlink:href="#linear-gradient"/>
    <linearGradient id="linear-gradient-21" x1="6.99" y1="63.06" x2="116.25" y2="61.32" xlink:href="#linear-gradient"/>
    <linearGradient id="linear-gradient-22" x1="6.67" y1="42.82" x2="115.93" y2="41.08" xlink:href="#linear-gradient"/>
    <linearGradient id="linear-gradient-23" x1="7.02" y1="65.02" x2="116.28" y2="63.28" xlink:href="#linear-gradient"/>
    <linearGradient id="linear-gradient-24" x1="6.91" y1="58" x2="116.17" y2="56.26" xlink:href="#linear-gradient"/>
    <linearGradient id="linear-gradient-25" x1="6.97" y1="61.59" x2="116.23" y2="59.85" xlink:href="#linear-gradient"/>
    <linearGradient id="linear-gradient-26" x1="6.97" y1="61.85" x2="116.23" y2="60.11" xlink:href="#linear-gradient"/>
    <linearGradient id="linear-gradient-27" x1="6.7" y1="44.59" x2="115.96" y2="42.85" xlink:href="#linear-gradient"/>
    <linearGradient id="linear-gradient-28" x1="6.51" y1="33.07" x2="115.77" y2="31.33" xlink:href="#linear-gradient"/>
  </defs>
  <g>
    <g>
      <g>
        <path d="M62.42.89C28.44.89.89,28.44.89,62.42s27.55,61.54,61.54,61.54,61.54-27.55,61.54-61.54S96.41.89,62.42.89Z" style="fill: url(#linear-gradient); stroke-width: 0px;"/>
        <path d="M62.42,124.84c-8.43,0-16.6-1.65-24.3-4.91-7.43-3.14-14.11-7.64-19.84-13.38-5.73-5.73-10.23-12.41-13.38-19.84-3.26-7.7-4.91-15.87-4.91-24.3s1.65-16.6,4.91-24.3c3.14-7.43,7.64-14.11,13.38-19.84,5.73-5.73,12.41-10.23,19.84-13.38C45.82,1.65,54,0,62.42,0s16.6,1.65,24.3,4.91c7.43,3.14,14.11,7.64,19.84,13.38,5.73,5.73,10.23,12.41,13.38,19.84,3.26,7.7,4.91,15.87,4.91,24.3s-1.65,16.6-4.91,24.3c-3.14,7.43-7.64,14.11-13.38,19.84-5.73,5.73-12.41,10.23-19.84,13.38-7.7,3.26-15.87,4.91-24.3,4.91ZM62.42,1.77c-8.19,0-16.13,1.6-23.61,4.77-7.22,3.05-13.71,7.43-19.28,13-5.57,5.57-9.94,12.06-13,19.28-3.16,7.48-4.77,15.42-4.77,23.61s1.6,16.13,4.77,23.61c3.05,7.22,7.43,13.71,13,19.28,5.57,5.57,12.06,9.94,19.28,13,7.48,3.16,15.42,4.77,23.61,4.77s16.13-1.6,23.61-4.77c7.22-3.05,13.71-7.43,19.28-13,5.57-5.57,9.94-12.06,13-19.28,3.16-7.48,4.77-15.42,4.77-23.61s-1.6-16.13-4.77-23.61c-3.05-7.22-7.43-13.71-13-19.28-5.57-5.57-12.06-9.94-19.28-13-7.48-3.16-15.42-4.77-23.61-4.77Z" style="fill: #fff; stroke-width: 0px;"/>
      </g>
      <path d="M17.63,36.26c3.15-.01,5.71,2.51,5.72,5.64.01,3.13-2.52,5.69-5.59,5.73-3.2.04-5.76-2.57-5.77-5.6-.02-3.2,2.49-5.76,5.65-5.77ZM19.12,41.95c0-.83-.61-1.45-1.43-1.46-.83,0-1.47.62-1.47,1.45,0,.83.63,1.46,1.46,1.46.82,0,1.44-.63,1.44-1.45ZM20.71,45.29s-.02-.11-.05-.17c-.25-.54-.62-.99-1.12-1.31-.09-.06-.21-.15-.32-.04-.09.09-.05.22,0,.33.24.53.6.96,1.08,1.29.06.04.13.08.2.1.14.04.21-.02.21-.19ZM14.62,45.29c0,.21.11.27.32.15.55-.32.94-.8,1.19-1.38.04-.1.07-.22-.03-.3-.1-.08-.19,0-.28.05-.53.31-.89.77-1.15,1.32-.03.06-.04.13-.05.17ZM14.62,38.57s0,.03,0,.05c.24.66.67,1.16,1.28,1.5.06.04.14.06.21,0,.08-.06.06-.15.03-.23-.23-.63-.67-1.09-1.21-1.45-.04-.03-.09-.04-.14-.05-.12-.02-.19.04-.18.17ZM13.87,39.57c-.25,0-.33.12-.21.28.44.55,1.03.86,1.72.98.2.03.29-.12.16-.28-.44-.55-1.04-.84-1.66-.97ZM19.37,45.92c0-.49-.3-1.26-.59-1.59-.08-.09-.16-.19-.3-.14-.12.05-.11.18-.1.29.04.58.22,1.11.57,1.58.07.1.16.25.31.2.16-.06.09-.23.11-.34ZM21.43,44.31c.15,0,.25,0,.29-.08.05-.09-.01-.16-.06-.23-.1-.15-.24-.26-.38-.36-.39-.28-.8-.52-1.29-.58-.08-.01-.17-.02-.23.07-.05.08-.01.15.03.21.44.54,1.03.83,1.63.97ZM16.96,39.33c-.08-.56-.25-1.11-.63-1.58-.07-.08-.15-.18-.27-.13-.11.05-.1.16-.1.26.01.61.24,1.15.58,1.65.04.05.09.1.14.14.12.08.21.05.25-.09.02-.07.02-.15.03-.25ZM19.97,40.83c.49-.08.92-.3,1.32-.6.13-.09.24-.21.34-.33.07-.07.13-.17.06-.27-.06-.09-.16-.08-.25-.06-.15.04-.31.07-.46.13-.44.19-.85.42-1.17.79-.06.07-.11.15-.06.25.04.08.12.08.21.08ZM15.96,45.8c0,.35.02.46.11.47.16.02.24-.11.31-.21.33-.47.53-1,.56-1.58,0-.11.02-.23-.11-.28-.13-.05-.2.06-.27.14-.37.46-.55,1-.61,1.47ZM18.01,38.45c0-.24-.03-.5-.1-.75-.04-.14-.06-.34-.24-.34-.18,0-.2.19-.25.33-.07.24-.1.49-.1.74,0,.27.02.55.11.82.04.13.07.31.25.31.16,0,.18-.18.22-.3.08-.26.1-.52.11-.81ZM19.37,38.01c-.02-.15.04-.32-.12-.38-.16-.06-.23.1-.31.2-.35.47-.53,1-.57,1.58,0,.12,0,.25.13.3.12.04.2-.07.26-.15.36-.46.54-.99.6-1.54ZM21.58,42.92c.14,0,.28-.01.42-.03.11-.01.23-.02.26-.16.02-.12-.08-.18-.17-.23-.55-.29-1.13-.38-1.74-.33-.12.01-.28.03-.29.18-.02.15.13.2.24.25.41.19.83.3,1.28.3ZM13.91,44.31c.57-.13,1.13-.42,1.58-.91.07-.07.14-.16.08-.27-.06-.1-.18-.08-.27-.06-.46.08-.86.3-1.23.57-.14.1-.28.21-.38.36-.04.07-.1.14-.04.23.05.08.13.07.27.07ZM13.7,42.92c.49,0,.96-.1,1.4-.33.09-.05.2-.11.17-.24-.03-.12-.14-.13-.24-.15-.63-.09-1.23.03-1.79.31-.03.01-.06.04-.08.06-.15.13-.13.26.06.3.15.04.31.03.47.05ZM18.01,45.46c0-.34-.04-.65-.15-.95-.03-.08-.07-.16-.16-.17-.11,0-.16.08-.2.16-.23.63-.22,1.25,0,1.88.03.08.08.18.19.17.1,0,.13-.1.16-.17.12-.3.14-.61.16-.91ZM14.67,41.7c.09,0,.23,0,.36-.02.11-.01.23-.03.26-.16.02-.13-.09-.19-.19-.24-.56-.27-1.15-.39-1.77-.3-.11.02-.23.03-.25.17-.01.13.11.18.2.23.42.22.88.31,1.39.32ZM20.63,41.7c.52,0,.98-.09,1.4-.31.11-.06.26-.11.22-.26-.03-.14-.19-.16-.31-.17-.58-.05-1.15.04-1.68.31-.02.01-.04.02-.07.04-.08.05-.17.1-.16.21.02.12.13.14.23.16.13.02.27.02.35.03ZM19.18,39.93c-.01.21.1.27.31.15.56-.31.94-.79,1.19-1.38.04-.09.08-.2-.02-.28-.09-.07-.2-.02-.28.03-.54.32-.91.78-1.16,1.34-.02.05-.03.1-.04.13Z" style="fill: #fff; stroke-width: 0px;"/>
      <path d="M107.45,36.54c3.15-.01,5.71,2.51,5.72,5.64.01,3.13-2.52,5.69-5.59,5.73-3.2.04-5.76-2.57-5.77-5.6-.02-3.2,2.49-5.76,5.65-5.77ZM108.94,42.23c0-.83-.61-1.45-1.43-1.46-.83,0-1.47.62-1.47,1.45,0,.83.63,1.46,1.46,1.46.82,0,1.44-.63,1.44-1.45ZM110.53,45.58s-.02-.11-.05-.17c-.25-.54-.62-.99-1.12-1.31-.09-.06-.21-.15-.32-.04-.09.09-.05.22,0,.33.24.53.6.96,1.08,1.29.06.04.13.08.2.1.14.04.21-.02.21-.19ZM104.43,45.57c0,.21.11.27.32.15.55-.32.94-.8,1.19-1.38.04-.1.07-.22-.03-.3-.1-.08-.19,0-.28.05-.53.31-.89.77-1.15,1.32-.03.06-.04.13-.05.17ZM104.44,38.85s0,.03,0,.05c.24.66.67,1.16,1.28,1.5.06.04.14.06.21,0,.08-.06.06-.15.03-.23-.23-.63-.67-1.09-1.21-1.45-.04-.03-.09-.04-.14-.05-.12-.02-.19.04-.18.17ZM103.69,39.85c-.25,0-.33.12-.21.28.44.55,1.03.86,1.72.98.2.03.29-.12.16-.28-.44-.55-1.04-.84-1.66-.97ZM109.19,46.2c0-.49-.3-1.26-.59-1.59-.08-.09-.16-.19-.3-.14-.12.05-.11.18-.1.29.04.58.22,1.11.57,1.58.07.1.16.25.31.2.16-.06.09-.23.11-.34ZM111.25,44.59c.15,0,.25,0,.29-.08.05-.09-.01-.16-.06-.23-.1-.15-.24-.26-.38-.36-.39-.28-.8-.52-1.29-.58-.08-.01-.17-.02-.23.07-.05.08-.01.15.03.21.44.54,1.03.83,1.63.97ZM106.78,39.62c-.08-.56-.25-1.11-.63-1.58-.07-.08-.15-.18-.27-.13-.11.05-.1.16-.1.26.01.61.24,1.15.58,1.65.04.05.09.1.14.14.12.08.21.05.25-.09.02-.07.02-.15.03-.25ZM109.78,41.11c.49-.08.92-.3,1.32-.6.13-.09.24-.21.34-.33.07-.07.13-.17.06-.27-.06-.09-.16-.08-.25-.06-.15.04-.31.07-.46.13-.44.19-.85.42-1.17.79-.06.07-.11.15-.06.25.04.08.12.08.21.08ZM105.78,46.08c0,.35.02.46.11.47.16.02.24-.11.31-.21.33-.47.53-1,.56-1.58,0-.11.02-.23-.11-.28-.13-.05-.2.06-.27.14-.37.46-.55,1-.61,1.47ZM107.83,38.73c0-.24-.03-.5-.1-.75-.04-.14-.06-.34-.24-.34-.18,0-.2.19-.25.33-.07.24-.1.49-.1.74,0,.27.02.55.11.82.04.13.07.31.25.31.16,0,.18-.18.22-.3.08-.26.1-.52.11-.81ZM109.19,38.29c-.02-.15.04-.32-.12-.38-.16-.06-.23.1-.31.2-.35.47-.53,1-.57,1.58,0,.12,0,.25.13.3.12.04.2-.07.26-.15.36-.46.54-.99.6-1.54ZM111.39,43.2c.14,0,.28-.01.42-.03.11-.01.23-.02.26-.16.02-.12-.08-.18-.17-.23-.55-.29-1.13-.38-1.74-.33-.12.01-.28.03-.29.18-.02.15.13.2.24.25.41.19.83.3,1.28.3ZM103.73,44.59c.57-.13,1.13-.42,1.58-.91.07-.07.14-.16.08-.27-.06-.1-.18-.08-.27-.06-.46.08-.86.3-1.23.57-.14.1-.28.21-.38.36-.04.07-.1.14-.04.23.05.08.13.07.27.07ZM103.52,43.2c.49,0,.96-.1,1.4-.33.09-.05.2-.11.17-.24-.03-.12-.14-.13-.24-.15-.63-.09-1.23.03-1.79.31-.03.01-.06.04-.08.06-.15.13-.13.26.06.3.15.04.31.03.47.05ZM107.83,45.74c0-.34-.04-.65-.15-.95-.03-.08-.07-.16-.16-.17-.11,0-.16.08-.2.16-.23.63-.22,1.25,0,1.88.03.08.08.18.19.17.1,0,.13-.1.16-.17.12-.3.14-.61.16-.91ZM104.49,41.98c.09,0,.23,0,.36-.02.11-.01.23-.03.26-.16.02-.13-.09-.19-.19-.24-.56-.27-1.15-.39-1.77-.3-.11.02-.23.03-.25.17-.01.13.11.18.2.23.42.22.88.31,1.39.32ZM110.45,41.98c.52,0,.98-.09,1.4-.31.11-.06.26-.11.22-.26-.03-.14-.19-.16-.31-.17-.58-.05-1.15.04-1.68.31-.02.01-.04.02-.07.04-.08.05-.17.1-.16.21.02.12.13.14.23.16.13.02.27.02.35.03ZM109,40.21c-.01.21.1.27.31.15.56-.31.94-.79,1.19-1.38.04-.09.08-.2-.02-.28-.09-.07-.2-.02-.28.03-.54.32-.91.78-1.16,1.34-.02.05-.03.1-.04.13Z" style="fill: #fff; stroke-width: 0px;"/>
      <g>
        <g>
          <circle cx="62.4" cy="62.73" r="37" transform="translate(-9.52 114.28) rotate(-80.78)" style="fill: #fff; stroke-width: 0px;"/>
          <path d="M62.4,26.62c19.94,0,36.11,16.17,36.11,36.11s-16.17,36.11-36.11,36.11-36.11-16.17-36.11-36.11S42.45,26.62,62.4,26.62M62.4,24.84c-20.89,0-37.89,17-37.89,37.89s17,37.89,37.89,37.89,37.89-17,37.89-37.89-17-37.89-37.89-37.89h0Z" style="fill: #fff; stroke-width: 0px;"/>
        </g>
        <g>
          <g>
            <path d="M59.79,43.45c-.24-.9-.48-1.74-.69-2.58-.62-2.42-1.86-4.51-3.12-6.6-.36-.59-.71-1.19-.99-1.84-.33-.78-.47-1.57-.01-2.36.29-.49.37-.52.85-.27.36.18.71.38,1.06.58.11.06.26.16.04.28-.73.4-.62,1.08-.48,1.73.16.75.5,1.43.87,2.09,1.43,2.56,2.21,5.33,2.5,8.27.02.21.06.44-.04.72Z" style="stroke-width: 0px;"/>
            <path d="M65.04,43.34c-.09-.91.07-1.78.22-2.65.43-2.45,1.34-4.71,2.53-6.86.33-.6.57-1.24.63-1.94.04-.51-.03-.96-.52-1.22-.22-.12-.15-.22.01-.3.43-.23.87-.45,1.3-.69.2-.11.32,0,.44.14.52.63.56,1.35.34,2.11-.25.85-.73,1.58-1.16,2.34-.93,1.64-1.99,3.21-2.61,5.03-.4,1.18-.75,2.38-1.05,3.59-.04.15-.08.3-.13.45Z" style="stroke-width: 0px;"/>
            <path d="M73.62,23.41c-2.44-.63-4.73,0-6.93,1.22-.14.08-.19.2-.22.38-.16,1.05-.8,1.54-1.8,1.41.71-.97,1.51-1.77,2.49-2.34,1.99-1.17,4.1-1.33,6.29-.94-.06-.14-.16-.15-.25-.18-1.71-.64-3.44-.71-5.2-.31-1.31.3-2.6.64-3.95.47-1.05-.13-2.11-.09-3.16-.01-.84.06-1.68.09-2.52-.13-1.64-.43-3.28-.76-4.98-.48-.77.13-1.61.38-1.89.62,3.39-.55,6.41.16,8.78,3.31-1.11.07-1.63-.35-1.83-1.49-.04-.22-.16-.29-.3-.37-1.91-1.06-3.91-1.61-6.05-1.35-2.8.33-4.85,2.86-4.85,6.05,0,2.4.91,4.4,2.26,6.16,1.18,1.54,2.66,2.67,4.13,3.82,1.81,1.42,3.66,2.79,5.15,4.67.02.02.06.07.1-.03-.34-.74-.78-1.42-1.26-2.08-.87-1.18-1.95-2.1-2.96-3.12-1.32-1.33-2.68-2.62-3.79-4.2-1.15-1.63-1.85-3.44-1.72-5.59.09-1.5.9-2.59,2.18-2.93.36-.1.73-.14,1.1-.14,2.51.03,4.66,1.13,6.57,2.92.02.02.04.04.06.05.26.41.63.81,1.03,1.06.06.04.12.07.18.1.23.12.46.22.69.31,1.03.39,1.99.39,3-.02.23-.09.46-.21.69-.34.06-.04.12-.07.18-.11.44-.28.73-.59.93-.91.05-.03.09-.07.14-.13.19-.25.44-.43.68-.62,1.88-1.47,3.91-2.42,6.24-2.29,1.1.06,2.04.48,2.59,1.66.43.92.44,1.9.31,2.89-.26,1.92-1.13,3.5-2.28,4.89-1.27,1.53-2.66,2.91-4.08,4.25-1.22,1.16-2.35,2.41-3.16,3.99-.07.13-.17.24-.13.47,1.64-2.11,3.69-3.55,5.65-5.11.88-.7,1.75-1.4,2.55-2.2,1.81-1.81,3.11-3.95,3.37-6.75.28-3.08-1.38-5.89-4.02-6.57Z" style="stroke-width: 0px;"/>
            <path d="M42.64,28.05c-1.72.99-2.81,2.66-3.59,4.65-.05.13-.03.23.04.36.36.73.2,1.4-.46,1.87,0-.99.13-1.94.47-2.83.68-1.83,1.86-3.12,3.33-4.12-.1-.05-.16,0-.23.03-1.29.57-2.35,1.5-3.22,2.73-.65.92-1.27,1.86-2.14,2.51-.68.51-1.29,1.13-1.88,1.77-.47.51-.96,1-1.55,1.34-1.16.66-2.28,1.38-3.16,2.5-.4.51-.79,1.14-.86,1.44,1.78-2.24,3.88-3.5,6.65-2.9-.63.67-1.12.7-1.73.11-.12-.11-.22-.09-.34-.06-1.59.42-3.01,1.21-4.18,2.57-1.52,1.78-1.64,4.48-.26,6.44,1.04,1.48,2.44,2.19,4.01,2.52,1.37.28,2.74.15,4.11.03,1.69-.14,3.38-.34,5.08-.03.02,0,.07.01.05-.08-.52-.26-1.08-.44-1.65-.57-1.03-.23-2.07-.2-3.1-.25-1.36-.07-2.73-.1-4.07-.45-1.39-.36-2.59-1.07-3.44-2.47-.6-.98-.59-2.09.03-3.03.17-.26.37-.49.59-.7,1.51-1.39,3.26-1.93,5.16-1.9.02,0,.04,0,.06,0,.34.11.72.14,1.07.07.05,0,.1-.02.15-.04.19-.06.37-.12.54-.2.78-.34,1.35-.88,1.77-1.7.09-.18.18-.38.26-.6.02-.06.04-.11.06-.17.14-.42.18-.77.16-1.08.02-.05.02-.1.02-.16,0-.26.07-.51.13-.76.48-1.96,1.27-3.68,2.71-4.92.68-.58,1.42-.85,2.26-.44.65.32,1.08.92,1.43,1.61.68,1.33.85,2.78.76,4.28-.09,1.65-.32,3.28-.58,4.9-.22,1.4-.35,2.8-.15,4.22.02.11,0,.25.13.36.06-2.22.66-4.25,1.15-6.31.22-.92.43-1.84.56-2.79.29-2.13.14-4.18-.92-6.04-1.17-2.05-3.37-2.85-5.24-1.78Z" style="stroke-width: 0px;"/>
            <path d="M25.03,49.08c-.58,2.07-.32,4.16.35,6.26.04.14.12.2.24.25.69.28.98.91.81,1.77-.6-.76-1.07-1.57-1.39-2.5-.64-1.91-.61-3.79-.2-5.66-.1.04-.11.12-.14.19-.54,1.42-.7,2.93-.56,4.53.11,1.19.25,2.38.05,3.54-.16.91-.2,1.84-.22,2.78-.01.75-.05,1.49-.25,2.2-.4,1.38-.73,2.79-.65,4.31.03.69.14,1.47.28,1.75-.14-3.06.54-5.61,2.8-7.28-.03.99-.35,1.38-1.12,1.41-.15,0-.21.11-.27.22-.84,1.54-1.33,3.22-1.31,5.14.03,2.51,1.57,4.65,3.7,5.08,1.6.32,2.99-.21,4.26-1.16,1.11-.83,1.96-1.98,2.83-3.12,1.07-1.4,2.11-2.84,3.46-3.9.02-.01.05-.04-.02-.09-.51.2-1,.49-1.47.83-.84.61-1.53,1.43-2.27,2.18-.97.99-1.93,2.01-3.05,2.77-1.16.79-2.42,1.17-3.84.76-1-.29-1.66-1.14-1.8-2.31-.04-.33-.04-.66-.02-.98.19-2.21,1.07-3.95,2.39-5.38.01-.02.03-.03.04-.05.29-.18.58-.44.78-.76.03-.05.06-.09.08-.14.1-.19.18-.38.25-.56.33-.86.4-1.7.19-2.64-.05-.21-.11-.43-.18-.65-.02-.06-.04-.12-.06-.17-.16-.42-.34-.72-.55-.94-.02-.05-.04-.09-.08-.14-.16-.2-.26-.44-.37-.68-.85-1.85-1.35-3.76-1.11-5.8.11-.96.46-1.73,1.28-2.06.64-.25,1.3-.13,1.95.12,1.26.48,2.25,1.46,3.1,2.66.93,1.32,1.76,2.73,2.56,4.16.69,1.23,1.45,2.39,2.44,3.32.08.07.15.19.31.18-1.29-1.73-2.11-3.72-3.02-5.66-.4-.86-.81-1.72-1.29-2.54-1.08-1.84-2.42-3.27-4.27-3.87-2.03-.66-4.02.42-4.65,2.65Z" style="stroke-width: 0px;"/>
            <path d="M77,29.18c-1.06,1.86-1.21,3.91-.92,6.04.13.94.34,1.87.56,2.79.49,2.06,1.08,4.1,1.15,6.31.13-.12.11-.25.13-.36.2-1.42.07-2.83-.15-4.22-.26-1.62-.49-3.25-.58-4.9-.08-1.5.08-2.95.76-4.28.35-.68.78-1.28,1.43-1.61.84-.41,1.58-.14,2.26.44,1.44,1.23,2.24,2.96,2.71,4.92.06.25.13.5.13.76,0,.06,0,.11.02.16-.02.31.02.66.16,1.08.02.05.04.11.06.17.08.21.17.41.26.6.42.82.99,1.36,1.77,1.7.17.07.35.14.54.2.05.01.1.03.15.04.35.07.74.03,1.07-.07.02,0,.04,0,.06,0,1.91-.03,3.66.5,5.16,1.9.22.21.42.44.59.7.62.93.62,2.05.03,3.03-.85,1.39-2.05,2.11-3.44,2.47-1.34.35-2.71.37-4.07.45-1.04.05-2.08.02-3.1.25-.57.13-1.13.31-1.65.57-.02.09.03.08.05.08,1.7-.32,3.39-.12,5.08.03,1.37.12,2.74.25,4.11-.03,1.57-.32,2.97-1.04,4.01-2.52,1.38-1.96,1.26-4.66-.26-6.44-1.16-1.36-2.58-2.15-4.18-2.57-.12-.03-.22-.06-.34.06-.61.58-1.1.56-1.73-.11,2.77-.6,4.87.66,6.65,2.9-.06-.3-.45-.93-.86-1.44-.88-1.12-2-1.85-3.16-2.5-.59-.34-1.08-.83-1.55-1.34-.59-.64-1.2-1.26-1.88-1.77-.87-.66-1.5-1.6-2.14-2.51-.87-1.23-1.93-2.17-3.22-2.73-.07-.03-.13-.07-.23-.03,1.47.99,2.65,2.28,3.33,4.12.33.9.46,1.84.47,2.83-.66-.48-.82-1.14-.46-1.87.06-.13.09-.23.04-.36-.77-1.99-1.86-3.66-3.59-4.65-1.86-1.07-4.07-.27-5.24,1.78Z" style="stroke-width: 0px;"/>
            <path d="M95.19,45.77c-1.84.6-3.19,2.04-4.27,3.87-.48.82-.89,1.68-1.29,2.54-.91,1.94-1.73,3.93-3.02,5.66.16,0,.23-.1.31-.18.99-.93,1.75-2.09,2.44-3.32.8-1.43,1.62-2.84,2.56-4.16.85-1.2,1.84-2.17,3.1-2.66.65-.25,1.31-.37,1.95-.12.82.33,1.16,1.1,1.28,2.06.24,2.03-.25,3.95-1.11,5.8-.11.23-.21.48-.37.68-.03.04-.06.09-.08.14-.2.22-.39.52-.55.94-.02.06-.04.11-.06.17-.07.22-.14.44-.18.65-.21.94-.14,1.78.19,2.64.07.19.16.37.25.56.02.05.05.1.08.14.2.32.48.59.78.76.01.02.03.03.04.05,1.32,1.43,2.2,3.18,2.39,5.38.03.33.02.66-.02.98-.14,1.18-.81,2.03-1.8,2.31-1.42.41-2.67.03-3.84-.76-1.13-.76-2.08-1.79-3.05-2.77-.74-.75-1.43-1.57-2.27-2.18-.47-.34-.96-.63-1.47-.83-.07.05-.03.08-.02.09,1.35,1.06,2.39,2.5,3.46,3.9.87,1.13,1.72,2.29,2.83,3.12,1.27.95,2.66,1.48,4.26,1.16,2.13-.43,3.67-2.57,3.7-5.08.03-1.92-.47-3.6-1.31-5.14-.06-.11-.12-.21-.27-.22-.77-.03-1.09-.42-1.12-1.41,2.26,1.67,2.94,4.22,2.8,7.28.14-.28.25-1.05.28-1.75.07-1.53-.26-2.93-.65-4.31-.2-.71-.24-1.45-.25-2.2-.02-.94-.07-1.87-.22-2.78-.2-1.17-.06-2.35.05-3.54.15-1.59-.01-3.11-.56-4.53-.03-.07-.04-.15-.14-.19.41,1.87.44,3.75-.2,5.66-.31.93-.79,1.75-1.39,2.5-.16-.87.13-1.49.81-1.77.12-.05.2-.11.24-.25.67-2.1.93-4.2.35-6.26-.63-2.24-2.62-3.32-4.65-2.65Z" style="stroke-width: 0px;"/>
            <path d="M37.37,54.14c-.5-.11-.93-.35-1.37-.58-1.22-.65-2.26-1.53-3.19-2.53-.26-.28-.56-.52-.92-.67-.26-.11-.51-.15-.74.06-.1.1-.14.04-.16-.06-.05-.27-.09-.54-.14-.81-.02-.13.05-.17.15-.21.42-.16.81-.06,1.17.19.41.28.71.66,1.04,1.02.71.78,1.36,1.61,2.21,2.26.56.42,1.13.81,1.72,1.18.07.05.15.1.22.15Z" style="stroke-width: 0px;"/>
            <path d="M87.59,55.13c.5-.11.93-.35,1.37-.58,1.22-.65,2.26-1.53,3.19-2.53.26-.28.56-.52.92-.67.26-.11.51-.15.74.06.1.1.14.04.16-.06.05-.27.09-.54.14-.81.02-.13-.05-.17-.15-.21-.42-.16-.81-.06-1.17.19-.41.28-.71.66-1.04,1.02-.71.78-1.36,1.61-2.21,2.26-.56.42-1.13.81-1.72,1.18-.07.05-.15.1-.22.15Z" style="stroke-width: 0px;"/>
            <path d="M59.79,43.45c-.24-.9-.48-1.74-.69-2.58-.62-2.42-1.86-4.51-3.12-6.6-.36-.59-.71-1.19-.99-1.84-.33-.78-.47-1.57-.01-2.36.29-.49.37-.52.85-.27.36.18.71.38,1.06.58.11.06.26.16.04.28-.73.4-.62,1.08-.48,1.73.16.75.5,1.43.87,2.09,1.43,2.56,2.21,5.33,2.5,8.27.02.21.06.44-.04.72Z" style="stroke-width: 0px;"/>
            <path d="M65.04,43.34c-.09-.91.07-1.78.22-2.65.43-2.45,1.34-4.71,2.53-6.86.33-.6.57-1.24.63-1.94.04-.51-.03-.96-.52-1.22-.22-.12-.15-.22.01-.3.43-.23.87-.45,1.3-.69.2-.11.32,0,.44.14.52.63.56,1.35.34,2.11-.25.85-.73,1.58-1.16,2.34-.93,1.64-1.99,3.21-2.61,5.03-.4,1.18-.75,2.38-1.05,3.59-.04.15-.08.3-.13.45Z" style="stroke-width: 0px;"/>
            <path d="M37.37,54.14c-.5-.11-.93-.35-1.37-.58-1.22-.65-2.26-1.53-3.19-2.53-.26-.28-.56-.52-.92-.67-.26-.11-.51-.15-.74.06-.1.1-.14.04-.16-.06-.05-.27-.09-.54-.14-.81-.02-.13.05-.17.15-.21.42-.16.81-.06,1.17.19.41.28.71.66,1.04,1.02.71.78,1.36,1.61,2.21,2.26.56.42,1.13.81,1.72,1.18.07.05.15.1.22.15Z" style="stroke-width: 0px;"/>
            <path d="M87.59,55.13c.5-.11.93-.35,1.37-.58,1.22-.65,2.26-1.53,3.19-2.53.26-.28.56-.52.92-.67.26-.11.51-.15.74.06.1.1.14.04.16-.06.05-.27.09-.54.14-.81.02-.13-.05-.17-.15-.21-.42-.16-.81-.06-1.17.19-.41.28-.71.66-1.04,1.02-.71.78-1.36,1.61-2.21,2.26-.56.42-1.13.81-1.72,1.18-.07.05-.15.1-.22.15Z" style="stroke-width: 0px;"/>
          </g>
          <g>
            <path d="M59.79,43.45c-.24-.9-.48-1.74-.69-2.58-.62-2.42-1.86-4.51-3.12-6.6-.36-.59-.71-1.19-.99-1.84-.33-.78-.47-1.57-.01-2.36.29-.49.37-.52.85-.27.36.18.71.38,1.06.58.11.06.26.16.04.28-.73.4-.62,1.08-.48,1.73.16.75.5,1.43.87,2.09,1.43,2.56,2.21,5.33,2.5,8.27.02.21.06.44-.04.72Z" style="fill: #fff; stroke-width: 0px;"/>
            <path d="M65.04,43.34c-.09-.91.07-1.78.22-2.65.43-2.45,1.34-4.71,2.53-6.86.33-.6.57-1.24.63-1.94.04-.51-.03-.96-.52-1.22-.22-.12-.15-.22.01-.3.43-.23.87-.45,1.3-.69.2-.11.32,0,.44.14.52.63.56,1.35.34,2.11-.25.85-.73,1.58-1.16,2.34-.93,1.64-1.99,3.21-2.61,5.03-.4,1.18-.75,2.38-1.05,3.59-.04.15-.08.3-.13.45Z" style="fill: #fff; stroke-width: 0px;"/>
            <g>
              <path d="M73.62,23.41c-2.44-.63-4.73,0-6.93,1.22-.14.08-.19.2-.22.38-.16,1.05-.8,1.54-1.8,1.41.71-.97,1.51-1.77,2.49-2.34,1.99-1.17,4.1-1.33,6.29-.94-.06-.14-.16-.15-.25-.18-1.71-.64-3.44-.71-5.2-.31-1.31.3-2.6.64-3.95.47-1.05-.13-2.11-.09-3.16-.01-.84.06-1.68.09-2.52-.13-1.64-.43-3.28-.76-4.98-.48-.77.13-1.61.38-1.89.62,3.39-.55,6.41.16,8.78,3.31-1.11.07-1.63-.35-1.83-1.49-.04-.22-.16-.29-.3-.37-1.91-1.06-3.91-1.61-6.05-1.35-2.8.33-4.85,2.86-4.85,6.05,0,2.4.91,4.4,2.26,6.16,1.18,1.54,2.66,2.67,4.13,3.82,1.81,1.42,3.66,2.79,5.15,4.67.02.02.06.07.1-.03-.34-.74-.78-1.42-1.26-2.08-.87-1.18-1.95-2.1-2.96-3.12-1.32-1.33-2.68-2.62-3.79-4.2-1.15-1.63-1.85-3.44-1.72-5.59.09-1.5.9-2.59,2.18-2.93.36-.1.73-.14,1.1-.14,2.51.03,4.66,1.13,6.57,2.92.02.02.04.04.06.05.26.41.63.81,1.03,1.06.06.04.12.07.18.1.23.12.46.22.69.31,1.03.39,1.99.39,3-.02.23-.09.46-.21.69-.34.06-.04.12-.07.18-.11.44-.28.73-.59.93-.91.05-.03.09-.07.14-.13.19-.25.44-.43.68-.62,1.88-1.47,3.91-2.42,6.24-2.29,1.1.06,2.04.48,2.59,1.66.43.92.44,1.9.31,2.89-.26,1.92-1.13,3.5-2.28,4.89-1.27,1.53-2.66,2.91-4.08,4.25-1.22,1.16-2.35,2.41-3.16,3.99-.07.13-.17.24-.13.47,1.64-2.11,3.69-3.55,5.65-5.11.88-.7,1.75-1.4,2.55-2.2,1.81-1.81,3.11-3.95,3.37-6.75.28-3.08-1.38-5.89-4.02-6.57Z" style="fill: #fff; stroke-width: 0px;"/>
              <path d="M70.15,22.4c1.02,0,2.04.18,3.05.56.09.03.18.04.25.18-.68-.12-1.36-.19-2.02-.19-1.47,0-2.9.33-4.27,1.13-.97.57-1.78,1.37-2.49,2.34.11.02.22.02.32.02.82,0,1.34-.5,1.48-1.43.03-.18.08-.3.22-.38,1.61-.9,3.26-1.47,4.99-1.47.64,0,1.29.08,1.95.25,2.65.68,4.31,3.49,4.02,6.57-.26,2.79-1.56,4.94-3.37,6.75-.8.8-1.68,1.5-2.55,2.2-1.96,1.56-4.01,3-5.65,5.11-.04-.23.06-.35.13-.47.81-1.58,1.94-2.83,3.16-3.99,1.42-1.35,2.81-2.72,4.08-4.25,1.15-1.39,2.02-2.96,2.28-4.89.13-.99.12-1.98-.31-2.89-.55-1.18-1.49-1.6-2.59-1.66-.14,0-.28-.01-.42-.01-2.16,0-4.06.92-5.82,2.3-.24.19-.48.37-.68.62-.04.06-.09.1-.14.13-.2.32-.49.63-.93.91-.06.04-.12.07-.18.11-.23.14-.46.25-.69.34-.51.21-1.01.31-1.5.31s-.98-.1-1.49-.29c-.22-.08-.45-.19-.69-.31-.06-.03-.12-.07-.18-.1-.4-.26-.77-.65-1.03-1.06-.02-.02-.04-.03-.06-.05-1.9-1.79-4.05-2.89-6.57-2.92-.02,0-.03,0-.05,0-.35,0-.7.04-1.05.14-1.29.34-2.09,1.42-2.18,2.93-.13,2.14.57,3.96,1.72,5.59,1.11,1.58,2.47,2.87,3.79,4.2,1.01,1.01,2.08,1.94,2.96,3.12.48.65.92,1.34,1.26,2.08-.02.05-.04.07-.06.07-.02,0-.04-.02-.05-.03-1.49-1.88-3.34-3.25-5.15-4.67-1.47-1.15-2.95-2.28-4.13-3.82-1.35-1.76-2.26-3.76-2.26-6.16,0-3.19,2.05-5.71,4.85-6.05.35-.04.7-.06,1.05-.06,1.75,0,3.41.53,5,1.41.14.08.26.15.3.37.19,1.06.65,1.5,1.6,1.5.07,0,.15,0,.23,0-1.9-2.52-4.21-3.48-6.8-3.48-.64,0-1.3.06-1.98.17.28-.24,1.12-.49,1.89-.62.44-.07.87-.11,1.31-.11,1.24,0,2.46.26,3.67.58.5.13.99.17,1.49.17.34,0,.69-.02,1.03-.05.56-.04,1.11-.07,1.66-.07.5,0,1,.02,1.5.09.25.03.49.04.73.04,1.09,0,2.15-.27,3.22-.52.72-.16,1.43-.25,2.15-.25M70.15,21.4h0c-.77,0-1.57.09-2.37.27l-.31.07c-.93.22-1.82.42-2.69.42-.21,0-.41-.01-.61-.04-.51-.06-1.04-.09-1.62-.09-.52,0-1.07.02-1.74.08-.28.02-.62.04-.95.04-.48,0-.87-.04-1.24-.14-1.15-.3-2.52-.61-3.92-.61-.5,0-1,.04-1.47.12-.41.07-1.78.33-2.38.85l-.22.19c-2.6.93-4.38,3.56-4.38,6.72,0,2.39.8,4.61,2.46,6.77,1.2,1.57,2.67,2.72,4.1,3.84l.21.17.53.41c1.64,1.28,3.19,2.49,4.46,4.09.21.26.51.41.83.41.34,0,.78-.18.99-.7l.16-.4-.18-.39c-.34-.73-.79-1.47-1.37-2.25-.7-.95-1.51-1.73-2.3-2.49-.25-.24-.5-.49-.75-.74l-.48-.48c-1.17-1.17-2.28-2.27-3.2-3.59-1.16-1.65-1.65-3.22-1.54-4.95.04-.62.28-1.72,1.44-2.03.25-.07.52-.1.79-.1,2.13.03,4.05.89,5.91,2.63.35.51.79.95,1.26,1.25.08.05.17.1.25.15.27.14.54.26.79.36.63.24,1.24.35,1.84.35s1.25-.13,1.88-.39c.27-.11.54-.25.81-.4.08-.04.15-.09.22-.14.47-.31.85-.66,1.13-1.07.07-.06.13-.13.18-.2.09-.12.24-.23.41-.37l.09-.07c1.82-1.43,3.47-2.09,5.2-2.09.12,0,.24,0,.37.01.89.05,1.41.37,1.74,1.08.29.61.35,1.33.22,2.34-.21,1.55-.86,2.94-2.06,4.38-1.26,1.52-2.66,2.9-4,4.17-1.07,1.02-2.42,2.42-3.36,4.25-.11.18-.33.56-.22,1.12l.41,2.19,1.37-1.75c1.3-1.67,2.86-2.89,4.52-4.18.32-.25.65-.5.97-.76.92-.73,1.81-1.45,2.63-2.28,2.21-2.2,3.41-4.61,3.66-7.36.32-3.47-1.5-6.56-4.38-7.52-.24-.37-.58-.49-.7-.53-1.1-.41-2.24-.62-3.41-.62h0Z" style="fill: #fff; stroke-width: 0px;"/>
            </g>
            <g>
              <path d="M42.64,28.05c-1.72.99-2.81,2.66-3.59,4.65-.05.13-.03.23.04.36.36.73.2,1.4-.46,1.87,0-.99.13-1.94.47-2.83.68-1.83,1.86-3.12,3.33-4.12-.1-.05-.16,0-.23.03-1.29.57-2.35,1.5-3.22,2.73-.65.92-1.27,1.86-2.14,2.51-.68.51-1.29,1.13-1.88,1.77-.47.51-.96,1-1.55,1.34-1.16.66-2.28,1.38-3.16,2.5-.4.51-.79,1.14-.86,1.44,1.78-2.24,3.88-3.5,6.65-2.9-.63.67-1.12.7-1.73.11-.12-.11-.22-.09-.34-.06-1.59.42-3.01,1.21-4.18,2.57-1.52,1.78-1.64,4.48-.26,6.44,1.04,1.48,2.44,2.19,4.01,2.52,1.37.28,2.74.15,4.11.03,1.69-.14,3.38-.34,5.08-.03.02,0,.07.01.05-.08-.52-.26-1.08-.44-1.65-.57-1.03-.23-2.07-.2-3.1-.25-1.36-.07-2.73-.1-4.07-.45-1.39-.36-2.59-1.07-3.44-2.47-.6-.98-.59-2.09.03-3.03.17-.26.37-.49.59-.7,1.51-1.39,3.26-1.93,5.16-1.9.02,0,.04,0,.06,0,.34.11.72.14,1.07.07.05,0,.1-.02.15-.04.19-.06.37-.12.54-.2.78-.34,1.35-.88,1.77-1.7.09-.18.18-.38.26-.6.02-.06.04-.11.06-.17.14-.42.18-.77.16-1.08.02-.05.02-.1.02-.16,0-.26.07-.51.13-.76.48-1.96,1.27-3.68,2.71-4.92.68-.58,1.42-.85,2.26-.44.65.32,1.08.92,1.43,1.61.68,1.33.85,2.78.76,4.28-.09,1.65-.32,3.28-.58,4.9-.22,1.4-.35,2.8-.15,4.22.02.11,0,.25.13.36.06-2.22.66-4.25,1.15-6.31.22-.92.43-1.84.56-2.79.29-2.13.14-4.18-.92-6.04-1.17-2.05-3.37-2.85-5.24-1.78Z" style="fill: #fff; stroke-width: 0px;"/>
              <path d="M44.39,27.57c1.36,0,2.68.82,3.49,2.25,1.06,1.86,1.21,3.91.92,6.04-.13.94-.34,1.87-.56,2.79-.49,2.06-1.08,4.1-1.15,6.31-.13-.12-.11-.25-.13-.36-.2-1.42-.07-2.83.15-4.22.26-1.62.49-3.25.58-4.9.08-1.5-.08-2.95-.76-4.28-.35-.68-.78-1.28-1.43-1.61-.28-.14-.54-.2-.8-.2-.52,0-1,.25-1.46.64-1.44,1.23-2.24,2.96-2.71,4.92-.06.25-.13.5-.13.76,0,.06,0,.11-.02.16.02.31-.02.66-.16,1.08-.02.05-.04.11-.06.17-.08.21-.17.41-.26.6-.42.82-.99,1.36-1.77,1.7-.17.07-.35.14-.54.2-.05.01-.1.03-.15.04-.12.02-.25.04-.37.04-.24,0-.48-.04-.7-.11-.01,0-.03,0-.04,0,0,0-.01,0-.02,0-.05,0-.1,0-.15,0-1.85,0-3.55.54-5.01,1.9-.22.21-.42.44-.59.7-.62.93-.62,2.05-.03,3.03.85,1.39,2.05,2.11,3.44,2.47,1.34.35,2.71.37,4.07.45,1.04.05,2.08.02,3.1.25.57.13,1.13.31,1.65.57.02.07,0,.08-.03.08,0,0-.01,0-.02,0-.67-.12-1.33-.17-2-.17-1.03,0-2.06.11-3.09.2-.77.07-1.54.14-2.32.14-.6,0-1.2-.04-1.79-.17-1.57-.32-2.97-1.04-4.01-2.52-1.38-1.96-1.26-4.66.26-6.44,1.16-1.36,2.58-2.15,4.18-2.57.05-.01.1-.03.15-.03.06,0,.12.02.19.08.29.28.55.41.81.41.29,0,.59-.17.92-.53-.47-.1-.91-.15-1.35-.15-2.13,0-3.83,1.18-5.31,3.05.06-.3.45-.93.86-1.44.88-1.12,2-1.85,3.16-2.5.59-.34,1.08-.83,1.55-1.34.59-.64,1.2-1.26,1.88-1.77.87-.66,1.5-1.6,2.14-2.51.87-1.23,1.93-2.17,3.22-2.73.05-.02.09-.05.14-.05.02,0,.05,0,.08.02-1.47.99-2.65,2.28-3.33,4.12-.33.9-.46,1.84-.47,2.83.66-.48.82-1.14.46-1.87-.06-.13-.09-.23-.04-.36.77-1.99,1.86-3.66,3.59-4.65.56-.32,1.16-.48,1.74-.48M44.39,26.57c-.64,0-1.26.14-1.85.41-.06-.01-.13-.02-.2-.02-.27,0-.46.09-.55.13-1.41.62-2.63,1.65-3.63,3.07l-.16.22c-.56.8-1.09,1.56-1.77,2.07-.79.6-1.46,1.29-2.02,1.89-.48.52-.87.9-1.31,1.15-1.21.68-2.46,1.49-3.46,2.76-.21.27-.92,1.2-1.05,1.86l-.05.24c-.63,1.13-.88,2.44-.75,3.72l-.03.14.04-.05c.12,1.02.48,2.02,1.1,2.89,1.09,1.55,2.6,2.5,4.63,2.92.61.13,1.26.19,1.99.19s1.49-.06,2.21-.13l.2-.02.49-.04c.87-.08,1.69-.15,2.51-.15.67,0,1.26.05,1.81.15l.09.02h.11s.48,0,.48,0l.33-.39c.2-.25.27-.59.19-.92l-.11-.46-.42-.21c-.55-.27-1.16-.49-1.87-.65-.86-.2-1.7-.22-2.52-.25-.25,0-.51-.02-.76-.03l-.5-.02c-1.18-.06-2.3-.11-3.38-.39-1.3-.34-2.2-.98-2.83-2.02-.4-.65-.39-1.35,0-1.96.12-.19.27-.36.44-.52,1.19-1.1,2.6-1.63,4.33-1.63h.07c.27.07.56.11.84.11.19,0,.39-.02.57-.05.08-.02.16-.04.24-.06.23-.07.45-.15.66-.24,1-.44,1.74-1.14,2.26-2.16.11-.22.22-.46.31-.71.03-.07.05-.14.07-.21.15-.45.22-.88.21-1.3.01-.08.02-.15.02-.23,0-.12.04-.27.08-.45l.02-.09c.49-2.02,1.25-3.42,2.39-4.39.31-.26.58-.4.81-.4.11,0,.23.03.36.1.36.18.66.54.99,1.16.53,1.03.74,2.23.66,3.77-.09,1.64-.33,3.28-.57,4.8-.2,1.23-.39,2.85-.15,4.52.02.17.05.6.43.96l1.62,1.52.06-2.22c.05-1.75.45-3.38.87-5.1.08-.34.17-.67.25-1.01.23-.96.45-1.91.58-2.88.36-2.62.02-4.8-1.04-6.67-.98-1.73-2.61-2.76-4.36-2.76h0Z" style="fill: #fff; stroke-width: 0px;"/>
            </g>
            <g>
              <path d="M25.03,49.08c-.58,2.07-.32,4.16.35,6.26.04.14.12.2.24.25.69.28.98.91.81,1.77-.6-.76-1.07-1.57-1.39-2.5-.64-1.91-.61-3.79-.2-5.66-.1.04-.11.12-.14.19-.54,1.42-.7,2.93-.56,4.53.11,1.19.25,2.38.05,3.54-.16.91-.2,1.84-.22,2.78-.01.75-.05,1.49-.25,2.2-.4,1.38-.73,2.79-.65,4.31.03.69.14,1.47.28,1.75-.14-3.06.54-5.61,2.8-7.28-.03.99-.35,1.38-1.12,1.41-.15,0-.21.11-.27.22-.84,1.54-1.33,3.22-1.31,5.14.03,2.51,1.57,4.65,3.7,5.08,1.6.32,2.99-.21,4.26-1.16,1.11-.83,1.96-1.98,2.83-3.12,1.07-1.4,2.11-2.84,3.46-3.9.02-.01.05-.04-.02-.09-.51.2-1,.49-1.47.83-.84.61-1.53,1.43-2.27,2.18-.97.99-1.93,2.01-3.05,2.77-1.16.79-2.42,1.17-3.84.76-1-.29-1.66-1.14-1.8-2.31-.04-.33-.04-.66-.02-.98.19-2.21,1.07-3.95,2.39-5.38.01-.02.03-.03.04-.05.29-.18.58-.44.78-.76.03-.05.06-.09.08-.14.1-.19.18-.38.25-.56.33-.86.4-1.7.19-2.64-.05-.21-.11-.43-.18-.65-.02-.06-.04-.12-.06-.17-.16-.42-.34-.72-.55-.94-.02-.05-.04-.09-.08-.14-.16-.2-.26-.44-.37-.68-.85-1.85-1.35-3.76-1.11-5.8.11-.96.46-1.73,1.28-2.06.64-.25,1.3-.13,1.95.12,1.26.48,2.25,1.46,3.1,2.66.93,1.32,1.76,2.73,2.56,4.16.69,1.23,1.45,2.39,2.44,3.32.08.07.15.19.31.18-1.29-1.73-2.11-3.72-3.02-5.66-.4-.86-.81-1.72-1.29-2.54-1.08-1.84-2.42-3.27-4.27-3.87-2.03-.66-4.02.42-4.65,2.65Z" style="fill: #fff; stroke-width: 0px;"/>
              <path d="M28.5,46.23c.39,0,.78.06,1.18.19,1.84.6,3.19,2.04,4.27,3.87.48.82.89,1.68,1.29,2.54.91,1.94,1.73,3.93,3.02,5.66,0,0,0,0-.01,0-.15,0-.22-.11-.29-.18-.99-.93-1.75-2.09-2.44-3.32-.8-1.43-1.62-2.84-2.56-4.16-.85-1.2-1.84-2.17-3.1-2.66-.4-.15-.8-.26-1.2-.26-.25,0-.5.04-.75.14-.82.33-1.16,1.1-1.28,2.06-.24,2.03.25,3.95,1.11,5.8.11.23.21.48.37.68.03.04.06.09.08.14.2.22.39.52.55.94.02.06.04.11.06.17.07.22.14.44.18.65.21.94.14,1.78-.19,2.64-.07.19-.16.37-.25.56-.02.05-.05.1-.08.14-.2.32-.48.59-.78.76-.01.02-.03.03-.04.05-1.32,1.43-2.2,3.18-2.39,5.38-.03.33-.02.66.02.98.14,1.18.81,2.03,1.8,2.31.39.11.77.17,1.14.17.96,0,1.85-.35,2.69-.92,1.13-.76,2.08-1.79,3.05-2.77.74-.75,1.43-1.57,2.27-2.18.47-.34.96-.63,1.47-.83.07.05.03.08.02.09-1.35,1.06-2.39,2.5-3.46,3.9-.87,1.13-1.72,2.29-2.83,3.12-1.01.76-2.11,1.25-3.32,1.25-.3,0-.61-.03-.93-.1-2.13-.43-3.67-2.57-3.7-5.08-.03-1.92.47-3.6,1.31-5.14.06-.11.12-.21.27-.22.77-.03,1.09-.42,1.12-1.41-2.26,1.67-2.94,4.22-2.8,7.28-.14-.28-.25-1.05-.28-1.75-.07-1.53.26-2.93.65-4.31.2-.71.24-1.45.25-2.2.02-.94.07-1.87.22-2.78.2-1.17.06-2.35-.05-3.54-.15-1.59.01-3.11.56-4.53.03-.07.04-.15.14-.19-.41,1.87-.44,3.75.2,5.66.31.93.79,1.75,1.39,2.5.16-.87-.13-1.49-.81-1.77-.12-.05-.2-.11-.24-.25-.67-2.1-.93-4.2-.35-6.26.51-1.8,1.89-2.85,3.47-2.85M28.5,45.23c-1.95,0-3.61,1.24-4.31,3.19-.19.14-.33.34-.42.6-.58,1.51-.79,3.18-.62,4.98l.03.29c.1,1.06.19,2.05.03,2.99-.18,1.04-.22,2.06-.24,2.93-.01.64-.04,1.33-.22,1.94-.41,1.41-.77,2.96-.69,4.64.02.36.1,1.57.39,2.15l.12.23c.24,1.33.86,2.51,1.72,3.39l.26.51v-.27c.67.62,1.5,1.06,2.41,1.24.38.08.76.12,1.13.12,1.34,0,2.62-.48,3.93-1.45,1.16-.87,2.04-2.03,2.9-3.15l.12-.16.31-.41c.95-1.25,1.85-2.44,2.97-3.32l.39-.3.02-.53c0-.33-.16-.64-.44-.85l-.45-.34-.52.2c-.55.22-1.1.53-1.69.95-.71.51-1.3,1.13-1.86,1.73-.18.19-.36.38-.54.56l-.35.36c-.84.86-1.64,1.67-2.55,2.29-.75.51-1.44.75-2.13.75-.28,0-.58-.04-.87-.13-.82-.23-1.03-1.02-1.09-1.47-.03-.26-.03-.52-.01-.78.16-1.82.84-3.38,2.09-4.75.39-.26.73-.61.97-1.01.04-.07.08-.14.12-.21.11-.22.21-.44.29-.66.4-1.05.48-2.1.23-3.21-.05-.24-.12-.5-.21-.76-.02-.07-.05-.14-.07-.21-.17-.45-.38-.83-.64-1.14-.04-.07-.08-.13-.13-.19-.07-.09-.14-.24-.21-.4l-.04-.08c-.89-1.93-1.22-3.61-1.02-5.26.12-1.04.5-1.18.66-1.25.12-.05.24-.07.38-.07.23,0,.51.06.84.19.95.36,1.79,1.1,2.64,2.3.93,1.31,1.75,2.73,2.5,4.07.61,1.08,1.46,2.46,2.63,3.56.11.11.43.45.97.45h.06s1.9-.08,1.9-.08l-1.14-1.52c-1.02-1.36-1.73-2.9-2.48-4.53-.15-.32-.29-.64-.44-.95-.42-.9-.85-1.79-1.34-2.62-1.34-2.28-2.92-3.7-4.82-4.32-.49-.16-1-.24-1.49-.24h0Z" style="fill: #fff; stroke-width: 0px;"/>
            </g>
            <g>
              <path d="M77,29.18c-1.06,1.86-1.21,3.91-.92,6.04.13.94.34,1.87.56,2.79.49,2.06,1.08,4.1,1.15,6.31.13-.12.11-.25.13-.36.2-1.42.07-2.83-.15-4.22-.26-1.62-.49-3.25-.58-4.9-.08-1.5.08-2.95.76-4.28.35-.68.78-1.28,1.43-1.61.84-.41,1.58-.14,2.26.44,1.44,1.23,2.24,2.96,2.71,4.92.06.25.13.5.13.76,0,.06,0,.11.02.16-.02.31.02.66.16,1.08.02.05.04.11.06.17.08.21.17.41.26.6.42.82.99,1.36,1.77,1.7.17.07.35.14.54.2.05.01.1.03.15.04.35.07.74.03,1.07-.07.02,0,.04,0,.06,0,1.91-.03,3.66.5,5.16,1.9.22.21.42.44.59.7.62.93.62,2.05.03,3.03-.85,1.39-2.05,2.11-3.44,2.47-1.34.35-2.71.37-4.07.45-1.04.05-2.08.02-3.1.25-.57.13-1.13.31-1.65.57-.02.09.03.08.05.08,1.7-.32,3.39-.12,5.08.03,1.37.12,2.74.25,4.11-.03,1.57-.32,2.97-1.04,4.01-2.52,1.38-1.96,1.26-4.66-.26-6.44-1.16-1.36-2.58-2.15-4.18-2.57-.12-.03-.22-.06-.34.06-.61.58-1.1.56-1.73-.11,2.77-.6,4.87.66,6.65,2.9-.06-.3-.45-.93-.86-1.44-.88-1.12-2-1.85-3.16-2.5-.59-.34-1.08-.83-1.55-1.34-.59-.64-1.2-1.26-1.88-1.77-.87-.66-1.5-1.6-2.14-2.51-.87-1.23-1.93-2.17-3.22-2.73-.07-.03-.13-.07-.23-.03,1.47.99,2.65,2.28,3.33,4.12.33.9.46,1.84.47,2.83-.66-.48-.82-1.14-.46-1.87.06-.13.09-.23.04-.36-.77-1.99-1.86-3.66-3.59-4.65-1.86-1.07-4.07-.27-5.24,1.78Z" style="fill: #fff; stroke-width: 0px;"/>
              <path d="M80.49,26.92c.59,0,1.18.15,1.74.48,1.72.99,2.81,2.66,3.59,4.65.05.13.03.23-.04.36-.36.73-.2,1.4.46,1.87,0-.99-.13-1.94-.47-2.83-.68-1.83-1.86-3.12-3.33-4.12.03-.02.06-.02.08-.02.05,0,.1.03.14.05,1.29.57,2.35,1.5,3.22,2.73.65.92,1.27,1.86,2.14,2.51.68.51,1.29,1.13,1.88,1.77.47.51.96,1,1.55,1.34,1.16.66,2.28,1.38,3.16,2.5.4.51.79,1.14.86,1.44-1.48-1.87-3.18-3.05-5.31-3.05-.43,0-.88.05-1.35.15.33.35.63.53.92.53.26,0,.52-.14.81-.41.07-.06.13-.08.19-.08.05,0,.1.01.15.03,1.59.42,3.01,1.21,4.18,2.57,1.52,1.78,1.64,4.48.26,6.44-1.04,1.48-2.44,2.19-4.01,2.52-.6.12-1.19.17-1.79.17-.77,0-1.55-.07-2.32-.14-1.03-.09-2.06-.2-3.09-.2-.66,0-1.33.04-2,.17,0,0-.01,0-.02,0-.02,0-.05-.01-.03-.08.52-.26,1.08-.44,1.65-.57,1.03-.23,2.07-.2,3.1-.25,1.36-.07,2.73-.1,4.07-.45,1.39-.36,2.59-1.07,3.44-2.47.6-.98.59-2.09-.03-3.03-.17-.26-.37-.49-.59-.7-1.47-1.36-3.16-1.9-5.01-1.9-.05,0-.1,0-.15,0,0,0-.01,0-.02,0-.01,0-.03,0-.04,0-.22.07-.46.11-.7.11-.13,0-.25-.01-.37-.04-.05,0-.1-.02-.15-.04-.19-.06-.37-.12-.54-.2-.78-.34-1.35-.88-1.77-1.7-.09-.18-.18-.38-.26-.6-.02-.06-.04-.11-.06-.17-.14-.42-.18-.77-.16-1.08-.02-.05-.02-.1-.02-.16,0-.26-.07-.51-.13-.76-.48-1.96-1.27-3.68-2.71-4.92-.45-.39-.94-.64-1.46-.64-.26,0-.53.06-.8.2-.65.32-1.08.92-1.43,1.61-.68,1.33-.85,2.78-.76,4.28.09,1.65.32,3.28.58,4.9.22,1.4.35,2.8.15,4.22-.02.11,0,.25-.13.36-.06-2.22-.66-4.25-1.15-6.31-.22-.92-.43-1.84-.56-2.79-.29-2.13-.14-4.18.92-6.04.81-1.43,2.13-2.25,3.49-2.25M80.49,25.92c-1.75,0-3.38,1.03-4.36,2.76-1.06,1.87-1.4,4.05-1.04,6.67.13.97.35,1.92.58,2.88.08.34.16.67.25,1.01.42,1.72.83,3.35.87,5.1l.06,2.22,1.62-1.52c.38-.36.42-.78.43-.94.24-1.69.04-3.31-.15-4.54-.24-1.52-.48-3.16-.57-4.8-.08-1.54.13-2.73.66-3.77.32-.63.63-.99.99-1.16.13-.06.25-.1.36-.1.23,0,.5.13.81.4,1.14.97,1.9,2.37,2.39,4.39l.02.09c.04.18.08.33.08.45,0,.08,0,.16.02.23,0,.42.06.85.21,1.3.02.07.05.14.07.21.09.25.2.49.31.71.52,1.01,1.26,1.72,2.26,2.16.21.09.43.17.66.24.08.02.16.04.24.06.18.04.37.05.57.05.28,0,.56-.04.84-.11h.07c1.73,0,3.15.53,4.33,1.63.17.15.31.33.44.52.4.61.41,1.3,0,1.95-.63,1.04-1.54,1.68-2.83,2.02-1.08.28-2.2.33-3.38.39l-.5.02c-.25.01-.51.02-.76.03-.81.03-1.65.05-2.52.25-.71.16-1.33.37-1.87.65l-.42.21-.11.46c-.08.33,0,.67.19.92l.3.38h.51s.09.01.09.01l.11-.02c.55-.1,1.14-.15,1.81-.15.82,0,1.64.07,2.51.15l.49.04.2.02c.72.06,1.46.13,2.21.13s1.38-.06,1.99-.19c2.02-.42,3.54-1.37,4.63-2.92.61-.87.98-1.87,1.1-2.89l.04.05-.03-.14c.13-1.28-.12-2.59-.75-3.72l-.05-.24c-.13-.66-.84-1.59-1.05-1.86-1-1.27-2.25-2.07-3.46-2.76-.44-.25-.83-.62-1.31-1.15-.55-.6-1.23-1.29-2.02-1.89-.68-.51-1.21-1.27-1.77-2.07l-.16-.22c-1-1.42-2.23-2.45-3.63-3.07-.08-.04-.27-.13-.54-.13-.07,0-.13,0-.2.02-.59-.27-1.21-.41-1.85-.41h0Z" style="fill: #fff; stroke-width: 0px;"/>
            </g>
            <g>
              <path d="M95.19,45.77c-1.84.6-3.19,2.04-4.27,3.87-.48.82-.89,1.68-1.29,2.54-.91,1.94-1.73,3.93-3.02,5.66.16,0,.23-.1.31-.18.99-.93,1.75-2.09,2.44-3.32.8-1.43,1.62-2.84,2.56-4.16.85-1.2,1.84-2.17,3.1-2.66.65-.25,1.31-.37,1.95-.12.82.33,1.16,1.1,1.28,2.06.24,2.03-.25,3.95-1.11,5.8-.11.23-.21.48-.37.68-.03.04-.06.09-.08.14-.2.22-.39.52-.55.94-.02.06-.04.11-.06.17-.07.22-.14.44-.18.65-.21.94-.14,1.78.19,2.64.07.19.16.37.25.56.02.05.05.1.08.14.2.32.48.59.78.76.01.02.03.03.04.05,1.32,1.43,2.2,3.18,2.39,5.38.03.33.02.66-.02.98-.14,1.18-.81,2.03-1.8,2.31-1.42.41-2.67.03-3.84-.76-1.13-.76-2.08-1.79-3.05-2.77-.74-.75-1.43-1.57-2.27-2.18-.47-.34-.96-.63-1.47-.83-.07.05-.03.08-.02.09,1.35,1.06,2.39,2.5,3.46,3.9.87,1.13,1.72,2.29,2.83,3.12,1.27.95,2.66,1.48,4.26,1.16,2.13-.43,3.67-2.57,3.7-5.08.03-1.92-.47-3.6-1.31-5.14-.06-.11-.12-.21-.27-.22-.77-.03-1.09-.42-1.12-1.41,2.26,1.67,2.94,4.22,2.8,7.28.14-.28.25-1.05.28-1.75.07-1.53-.26-2.93-.65-4.31-.2-.71-.24-1.45-.25-2.2-.02-.94-.07-1.87-.22-2.78-.2-1.17-.06-2.35.05-3.54.15-1.59-.01-3.11-.56-4.53-.03-.07-.04-.15-.14-.19.41,1.87.44,3.75-.2,5.66-.31.93-.79,1.75-1.39,2.5-.16-.87.13-1.49.81-1.77.12-.05.2-.11.24-.25.67-2.1.93-4.2.35-6.26-.63-2.24-2.62-3.32-4.65-2.65Z" style="fill: #fff; stroke-width: 0px;"/>
              <path d="M96.38,45.58c1.58,0,2.96,1.05,3.47,2.85.58,2.07.32,4.16-.35,6.26-.04.14-.12.2-.24.25-.69.28-.98.91-.81,1.77.6-.76,1.07-1.57,1.39-2.5.64-1.91.61-3.79.2-5.66.1.04.11.12.14.19.54,1.42.7,2.93.56,4.53-.11,1.19-.25,2.38-.05,3.54.16.91.2,1.84.22,2.78.01.75.05,1.49.25,2.2.4,1.38.73,2.79.65,4.31-.03.69-.14,1.47-.28,1.75.14-3.06-.54-5.61-2.8-7.28.03.99.35,1.38,1.12,1.41.15,0,.21.11.27.22.84,1.54,1.33,3.22,1.31,5.14-.03,2.51-1.57,4.65-3.7,5.08-.32.06-.63.1-.93.1-1.22,0-2.31-.49-3.32-1.25-1.11-.83-1.96-1.98-2.83-3.12-1.07-1.4-2.11-2.84-3.46-3.9-.02-.01-.05-.04.02-.09.51.2,1,.49,1.47.83.84.61,1.53,1.43,2.27,2.18.97.99,1.93,2.01,3.05,2.77.84.57,1.73.92,2.69.92.37,0,.75-.05,1.14-.17,1-.29,1.66-1.14,1.8-2.31.04-.33.04-.66.02-.98-.19-2.21-1.07-3.95-2.39-5.38-.01-.02-.03-.03-.04-.05-.29-.18-.58-.44-.78-.76-.03-.05-.06-.09-.08-.14-.1-.19-.18-.38-.25-.56-.33-.86-.4-1.7-.19-2.64.05-.21.11-.43.18-.65.02-.06.04-.12.06-.17.16-.42.34-.72.55-.94.02-.05.04-.09.08-.14.16-.2.26-.44.37-.68.85-1.85,1.35-3.76,1.11-5.8-.11-.96-.46-1.73-1.28-2.06-.25-.1-.49-.14-.75-.14-.4,0-.8.11-1.2.26-1.26.48-2.25,1.46-3.1,2.66-.93,1.32-1.76,2.73-2.56,4.16-.69,1.23-1.45,2.39-2.44,3.32-.08.07-.15.18-.29.18,0,0,0,0-.01,0,1.29-1.73,2.11-3.72,3.02-5.66.4-.86.81-1.72,1.29-2.54,1.08-1.84,2.42-3.27,4.27-3.87.4-.13.8-.19,1.18-.19M96.38,44.58c-.5,0-1,.08-1.49.24-1.9.62-3.47,2.03-4.82,4.32-.49.84-.91,1.72-1.34,2.62-.15.32-.29.63-.44.95-.75,1.63-1.46,3.17-2.48,4.53l-1.14,1.52,1.9.08h.02s.04,0,.04,0c.55,0,.87-.33.97-.44,1.18-1.1,2.03-2.48,2.64-3.56.75-1.34,1.58-2.76,2.5-4.07.85-1.21,1.69-1.94,2.64-2.3.34-.13.62-.19.84-.19.14,0,.26.02.38.07.16.06.53.21.66,1.25.2,1.65-.13,3.33-1.02,5.26l-.04.08c-.07.16-.14.31-.21.4-.05.06-.09.13-.13.19-.26.31-.47.69-.64,1.14-.03.07-.05.14-.07.21-.09.26-.16.51-.21.76-.25,1.12-.17,2.17.23,3.21.08.22.18.44.29.66.04.07.08.14.12.21.24.39.58.74.97,1.01,1.25,1.37,1.93,2.92,2.09,4.75.02.26.02.52-.01.78-.05.45-.27,1.24-1.09,1.47-.29.08-.59.13-.87.13-.69,0-1.38-.25-2.13-.75-.91-.62-1.7-1.43-2.55-2.29l-.35-.36c-.18-.18-.36-.37-.54-.56-.57-.6-1.16-1.22-1.86-1.73-.59-.42-1.14-.74-1.69-.95l-.52-.2-.45.34c-.27.21-.43.52-.44.85v.49s.41.34.41.34c1.12.88,2.02,2.06,2.97,3.32l.31.41.12.16c.85,1.12,1.73,2.27,2.9,3.15,1.3.98,2.59,1.45,3.93,1.45.37,0,.76-.04,1.13-.12.91-.18,1.73-.62,2.42-1.24v.27s.25-.51.25-.51c.86-.88,1.48-2.06,1.72-3.39l.12-.23c.3-.58.37-1.79.39-2.15.08-1.68-.28-3.22-.69-4.64-.18-.62-.2-1.3-.22-1.94-.02-.87-.06-1.89-.24-2.93-.16-.94-.07-1.94.03-2.99l.03-.29c.17-1.8-.04-3.48-.62-4.98-.09-.26-.23-.46-.42-.6-.7-1.95-2.35-3.19-4.31-3.19h0Z" style="fill: #fff; stroke-width: 0px;"/>
            </g>
            <path d="M37.37,54.14c-.5-.11-.93-.35-1.37-.58-1.22-.65-2.26-1.53-3.19-2.53-.26-.28-.56-.52-.92-.67-.26-.11-.51-.15-.74.06-.1.1-.14.04-.16-.06-.05-.27-.09-.54-.14-.81-.02-.13.05-.17.15-.21.42-.16.81-.06,1.17.19.41.28.71.66,1.04,1.02.71.78,1.36,1.61,2.21,2.26.56.42,1.13.81,1.72,1.18.07.05.15.1.22.15Z" style="fill: #fff; stroke-width: 0px;"/>
            <path d="M87.59,55.13c.5-.11.93-.35,1.37-.58,1.22-.65,2.26-1.53,3.19-2.53.26-.28.56-.52.92-.67.26-.11.51-.15.74.06.1.1.14.04.16-.06.05-.27.09-.54.14-.81.02-.13-.05-.17-.15-.21-.42-.16-.81-.06-1.17.19-.41.28-.71.66-1.04,1.02-.71.78-1.36,1.61-2.21,2.26-.56.42-1.13.81-1.72,1.18-.07.05-.15.1-.22.15Z" style="fill: #fff; stroke-width: 0px;"/>
            <path d="M59.79,43.45c-.24-.9-.48-1.74-.69-2.58-.62-2.42-1.86-4.51-3.12-6.6-.36-.59-.71-1.19-.99-1.84-.33-.78-.47-1.57-.01-2.36.29-.49.37-.52.85-.27.36.18.71.38,1.06.58.11.06.26.16.04.28-.73.4-.62,1.08-.48,1.73.16.75.5,1.43.87,2.09,1.43,2.56,2.21,5.33,2.5,8.27.02.21.06.44-.04.72Z" style="fill: #fff; stroke-width: 0px;"/>
            <path d="M65.04,43.34c-.09-.91.07-1.78.22-2.65.43-2.45,1.34-4.71,2.53-6.86.33-.6.57-1.24.63-1.94.04-.51-.03-.96-.52-1.22-.22-.12-.15-.22.01-.3.43-.23.87-.45,1.3-.69.2-.11.32,0,.44.14.52.63.56,1.35.34,2.11-.25.85-.73,1.58-1.16,2.34-.93,1.64-1.99,3.21-2.61,5.03-.4,1.18-.75,2.38-1.05,3.59-.04.15-.08.3-.13.45Z" style="fill: #fff; stroke-width: 0px;"/>
            <path d="M37.37,54.14c-.5-.11-.93-.35-1.37-.58-1.22-.65-2.26-1.53-3.19-2.53-.26-.28-.56-.52-.92-.67-.26-.11-.51-.15-.74.06-.1.1-.14.04-.16-.06-.05-.27-.09-.54-.14-.81-.02-.13.05-.17.15-.21.42-.16.81-.06,1.17.19.41.28.71.66,1.04,1.02.71.78,1.36,1.61,2.21,2.26.56.42,1.13.81,1.72,1.18.07.05.15.1.22.15Z" style="fill: #fff; stroke-width: 0px;"/>
            <path d="M87.59,55.13c.5-.11.93-.35,1.37-.58,1.22-.65,2.26-1.53,3.19-2.53.26-.28.56-.52.92-.67.26-.11.51-.15.74.06.1.1.14.04.16-.06.05-.27.09-.54.14-.81.02-.13-.05-.17-.15-.21-.42-.16-.81-.06-1.17.19-.41.28-.71.66-1.04,1.02-.71.78-1.36,1.61-2.21,2.26-.56.42-1.13.81-1.72,1.18-.07.05-.15.1-.22.15Z" style="fill: #fff; stroke-width: 0px;"/>
          </g>
          <g>
            <path d="M59.79,43.45c-.24-.9-.48-1.74-.69-2.58-.62-2.42-1.86-4.51-3.12-6.6-.36-.59-.71-1.19-.99-1.84-.33-.78-.47-1.57-.01-2.36.29-.49.37-.52.85-.27.36.18.71.38,1.06.58.11.06.26.16.04.28-.73.4-.62,1.08-.48,1.73.16.75.5,1.43.87,2.09,1.43,2.56,2.21,5.33,2.5,8.27.02.21.06.44-.04.72Z" style="fill: none; stroke: #fff; stroke-width: .89px;"/>
            <path d="M65.04,43.34c-.09-.91.07-1.78.22-2.65.43-2.45,1.34-4.71,2.53-6.86.33-.6.57-1.24.63-1.94.04-.51-.03-.96-.52-1.22-.22-.12-.15-.22.01-.3.43-.23.87-.45,1.3-.69.2-.11.32,0,.44.14.52.63.56,1.35.34,2.11-.25.85-.73,1.58-1.16,2.34-.93,1.64-1.99,3.21-2.61,5.03-.4,1.18-.75,2.38-1.05,3.59-.04.15-.08.3-.13.45Z" style="fill: none; stroke: #fff; stroke-width: .89px;"/>
            <g>
              <path d="M73.62,23.41c-2.44-.63-4.73,0-6.93,1.22-.14.08-.19.2-.22.38-.16,1.05-.8,1.54-1.8,1.41.71-.97,1.51-1.77,2.49-2.34,1.99-1.17,4.1-1.33,6.29-.94-.06-.14-.16-.15-.25-.18-1.71-.64-3.44-.71-5.2-.31-1.31.3-2.6.64-3.95.47-1.05-.13-2.11-.09-3.16-.01-.84.06-1.68.09-2.52-.13-1.64-.43-3.28-.76-4.98-.48-.77.13-1.61.38-1.89.62,3.39-.55,6.41.16,8.78,3.31-1.11.07-1.63-.35-1.83-1.49-.04-.22-.16-.29-.3-.37-1.91-1.06-3.91-1.61-6.05-1.35-2.8.33-4.85,2.86-4.85,6.05,0,2.4.91,4.4,2.26,6.16,1.18,1.54,2.66,2.67,4.13,3.82,1.81,1.42,3.66,2.79,5.15,4.67.02.02.06.07.1-.03-.34-.74-.78-1.42-1.26-2.08-.87-1.18-1.95-2.1-2.96-3.12-1.32-1.33-2.68-2.62-3.79-4.2-1.15-1.63-1.85-3.44-1.72-5.59.09-1.5.9-2.59,2.18-2.93.36-.1.73-.14,1.1-.14,2.51.03,4.66,1.13,6.57,2.92.02.02.04.04.06.05.26.41.63.81,1.03,1.06.06.04.12.07.18.1.23.12.46.22.69.31,1.03.39,1.99.39,3-.02.23-.09.46-.21.69-.34.06-.04.12-.07.18-.11.44-.28.73-.59.93-.91.05-.03.09-.07.14-.13.19-.25.44-.43.68-.62,1.88-1.47,3.91-2.42,6.24-2.29,1.1.06,2.04.48,2.59,1.66.43.92.44,1.9.31,2.89-.26,1.92-1.13,3.5-2.28,4.89-1.27,1.53-2.66,2.91-4.08,4.25-1.22,1.16-2.35,2.41-3.16,3.99-.07.13-.17.24-.13.47,1.64-2.11,3.69-3.55,5.65-5.11.88-.7,1.75-1.4,2.55-2.2,1.81-1.81,3.11-3.95,3.37-6.75.28-3.08-1.38-5.89-4.02-6.57Z" style="fill: none; stroke: #fff; stroke-width: .89px;"/>
              <path d="M70.15,22.4c1.02,0,2.04.18,3.05.56.09.03.18.04.25.18-.68-.12-1.36-.19-2.02-.19-1.47,0-2.9.33-4.27,1.13-.97.57-1.78,1.37-2.49,2.34.11.02.22.02.32.02.82,0,1.34-.5,1.48-1.43.03-.18.08-.3.22-.38,1.61-.9,3.26-1.47,4.99-1.47.64,0,1.29.08,1.95.25,2.65.68,4.31,3.49,4.02,6.57-.26,2.79-1.56,4.94-3.37,6.75-.8.8-1.68,1.5-2.55,2.2-1.96,1.56-4.01,3-5.65,5.11-.04-.23.06-.35.13-.47.81-1.58,1.94-2.83,3.16-3.99,1.42-1.35,2.81-2.72,4.08-4.25,1.15-1.39,2.02-2.96,2.28-4.89.13-.99.12-1.98-.31-2.89-.55-1.18-1.49-1.6-2.59-1.66-.14,0-.28-.01-.42-.01-2.16,0-4.06.92-5.82,2.3-.24.19-.48.37-.68.62-.04.06-.09.1-.14.13-.2.32-.49.63-.93.91-.06.04-.12.07-.18.11-.23.14-.46.25-.69.34-.51.21-1.01.31-1.5.31s-.98-.1-1.49-.29c-.22-.08-.45-.19-.69-.31-.06-.03-.12-.07-.18-.1-.4-.26-.77-.65-1.03-1.06-.02-.02-.04-.03-.06-.05-1.9-1.79-4.05-2.89-6.57-2.92-.02,0-.03,0-.05,0-.35,0-.7.04-1.05.14-1.29.34-2.09,1.42-2.18,2.93-.13,2.14.57,3.96,1.72,5.59,1.11,1.58,2.47,2.87,3.79,4.2,1.01,1.01,2.08,1.94,2.96,3.12.48.65.92,1.34,1.26,2.08-.02.05-.04.07-.06.07-.02,0-.04-.02-.05-.03-1.49-1.88-3.34-3.25-5.15-4.67-1.47-1.15-2.95-2.28-4.13-3.82-1.35-1.76-2.26-3.76-2.26-6.16,0-3.19,2.05-5.71,4.85-6.05.35-.04.7-.06,1.05-.06,1.75,0,3.41.53,5,1.41.14.08.26.15.3.37.19,1.06.65,1.5,1.6,1.5.07,0,.15,0,.23,0-1.9-2.52-4.21-3.48-6.8-3.48-.64,0-1.3.06-1.98.17.28-.24,1.12-.49,1.89-.62.44-.07.87-.11,1.31-.11,1.24,0,2.46.26,3.67.58.5.13.99.17,1.49.17.34,0,.69-.02,1.03-.05.56-.04,1.11-.07,1.66-.07.5,0,1,.02,1.5.09.25.03.49.04.73.04,1.09,0,2.15-.27,3.22-.52.72-.16,1.43-.25,2.15-.25M70.15,21.4h0c-.77,0-1.57.09-2.37.27l-.31.07c-.93.22-1.82.42-2.69.42-.21,0-.41-.01-.61-.04-.51-.06-1.04-.09-1.62-.09-.52,0-1.07.02-1.74.08-.28.02-.62.04-.95.04-.48,0-.87-.04-1.24-.14-1.15-.3-2.52-.61-3.92-.61-.5,0-1,.04-1.47.12-.41.07-1.78.33-2.38.85l-.22.19c-2.6.93-4.38,3.56-4.38,6.72,0,2.39.8,4.61,2.46,6.77,1.2,1.57,2.67,2.72,4.1,3.84l.21.17.53.41c1.64,1.28,3.19,2.49,4.46,4.09.21.26.51.41.83.41.34,0,.78-.18.99-.7l.16-.4-.18-.39c-.34-.73-.79-1.47-1.37-2.25-.7-.95-1.51-1.73-2.3-2.49-.25-.24-.5-.49-.75-.74l-.48-.48c-1.17-1.17-2.28-2.27-3.2-3.59-1.16-1.65-1.65-3.22-1.54-4.95.04-.62.28-1.72,1.44-2.03.25-.07.52-.1.79-.1,2.13.03,4.05.89,5.91,2.63.35.51.79.95,1.26,1.25.08.05.17.1.25.15.27.14.54.26.79.36.63.24,1.24.35,1.84.35s1.25-.13,1.88-.39c.27-.11.54-.25.81-.4.08-.04.15-.09.22-.14.47-.31.85-.66,1.13-1.07.07-.06.13-.13.18-.2.09-.12.24-.23.41-.37l.09-.07c1.82-1.43,3.47-2.09,5.2-2.09.12,0,.24,0,.37.01.89.05,1.41.37,1.74,1.08.29.61.35,1.33.22,2.34-.21,1.55-.86,2.94-2.06,4.38-1.26,1.52-2.66,2.9-4,4.17-1.07,1.02-2.42,2.42-3.36,4.25-.11.18-.33.56-.22,1.12l.41,2.19,1.37-1.75c1.3-1.67,2.86-2.89,4.52-4.18.32-.25.65-.5.97-.76.92-.73,1.81-1.45,2.63-2.28,2.21-2.2,3.41-4.61,3.66-7.36.32-3.47-1.5-6.56-4.38-7.52-.24-.37-.58-.49-.7-.53-1.1-.41-2.24-.62-3.41-.62h0Z" style="fill: none; stroke: #fff; stroke-width: .89px;"/>
            </g>
            <g>
              <path d="M42.64,28.05c-1.72.99-2.81,2.66-3.59,4.65-.05.13-.03.23.04.36.36.73.2,1.4-.46,1.87,0-.99.13-1.94.47-2.83.68-1.83,1.86-3.12,3.33-4.12-.1-.05-.16,0-.23.03-1.29.57-2.35,1.5-3.22,2.73-.65.92-1.27,1.86-2.14,2.51-.68.51-1.29,1.13-1.88,1.77-.47.51-.96,1-1.55,1.34-1.16.66-2.28,1.38-3.16,2.5-.4.51-.79,1.14-.86,1.44,1.78-2.24,3.88-3.5,6.65-2.9-.63.67-1.12.7-1.73.11-.12-.11-.22-.09-.34-.06-1.59.42-3.01,1.21-4.18,2.57-1.52,1.78-1.64,4.48-.26,6.44,1.04,1.48,2.44,2.19,4.01,2.52,1.37.28,2.74.15,4.11.03,1.69-.14,3.38-.34,5.08-.03.02,0,.07.01.05-.08-.52-.26-1.08-.44-1.65-.57-1.03-.23-2.07-.2-3.1-.25-1.36-.07-2.73-.1-4.07-.45-1.39-.36-2.59-1.07-3.44-2.47-.6-.98-.59-2.09.03-3.03.17-.26.37-.49.59-.7,1.51-1.39,3.26-1.93,5.16-1.9.02,0,.04,0,.06,0,.34.11.72.14,1.07.07.05,0,.1-.02.15-.04.19-.06.37-.12.54-.2.78-.34,1.35-.88,1.77-1.7.09-.18.18-.38.26-.6.02-.06.04-.11.06-.17.14-.42.18-.77.16-1.08.02-.05.02-.1.02-.16,0-.26.07-.51.13-.76.48-1.96,1.27-3.68,2.71-4.92.68-.58,1.42-.85,2.26-.44.65.32,1.08.92,1.43,1.61.68,1.33.85,2.78.76,4.28-.09,1.65-.32,3.28-.58,4.9-.22,1.4-.35,2.8-.15,4.22.02.11,0,.25.13.36.06-2.22.66-4.25,1.15-6.31.22-.92.43-1.84.56-2.79.29-2.13.14-4.18-.92-6.04-1.17-2.05-3.37-2.85-5.24-1.78Z" style="fill: none; stroke: #fff; stroke-width: .89px;"/>
              <path d="M44.39,27.57c1.36,0,2.68.82,3.49,2.25,1.06,1.86,1.21,3.91.92,6.04-.13.94-.34,1.87-.56,2.79-.49,2.06-1.08,4.1-1.15,6.31-.13-.12-.11-.25-.13-.36-.2-1.42-.07-2.83.15-4.22.26-1.62.49-3.25.58-4.9.08-1.5-.08-2.95-.76-4.28-.35-.68-.78-1.28-1.43-1.61-.28-.14-.54-.2-.8-.2-.52,0-1,.25-1.46.64-1.44,1.23-2.24,2.96-2.71,4.92-.06.25-.13.5-.13.76,0,.06,0,.11-.02.16.02.31-.02.66-.16,1.08-.02.05-.04.11-.06.17-.08.21-.17.41-.26.6-.42.82-.99,1.36-1.77,1.7-.17.07-.35.14-.54.2-.05.01-.1.03-.15.04-.12.02-.25.04-.37.04-.24,0-.48-.04-.7-.11-.01,0-.03,0-.04,0,0,0-.01,0-.02,0-.05,0-.1,0-.15,0-1.85,0-3.55.54-5.01,1.9-.22.21-.42.44-.59.7-.62.93-.62,2.05-.03,3.03.85,1.39,2.05,2.11,3.44,2.47,1.34.35,2.71.37,4.07.45,1.04.05,2.08.02,3.1.25.57.13,1.13.31,1.65.57.02.07,0,.08-.03.08,0,0-.01,0-.02,0-.67-.12-1.33-.17-2-.17-1.03,0-2.06.11-3.09.2-.77.07-1.54.14-2.32.14-.6,0-1.2-.04-1.79-.17-1.57-.32-2.97-1.04-4.01-2.52-1.38-1.96-1.26-4.66.26-6.44,1.16-1.36,2.58-2.15,4.18-2.57.05-.01.1-.03.15-.03.06,0,.12.02.19.08.29.28.55.41.81.41.29,0,.59-.17.92-.53-.47-.1-.91-.15-1.35-.15-2.13,0-3.83,1.18-5.31,3.05.06-.3.45-.93.86-1.44.88-1.12,2-1.85,3.16-2.5.59-.34,1.08-.83,1.55-1.34.59-.64,1.2-1.26,1.88-1.77.87-.66,1.5-1.6,2.14-2.51.87-1.23,1.93-2.17,3.22-2.73.05-.02.09-.05.14-.05.02,0,.05,0,.08.02-1.47.99-2.65,2.28-3.33,4.12-.33.9-.46,1.84-.47,2.83.66-.48.82-1.14.46-1.87-.06-.13-.09-.23-.04-.36.77-1.99,1.86-3.66,3.59-4.65.56-.32,1.16-.48,1.74-.48M44.39,26.57c-.64,0-1.26.14-1.85.41-.06-.01-.13-.02-.2-.02-.27,0-.46.09-.55.13-1.41.62-2.63,1.65-3.63,3.07l-.16.22c-.56.8-1.09,1.56-1.77,2.07-.79.6-1.46,1.29-2.02,1.89-.48.52-.87.9-1.31,1.15-1.21.68-2.46,1.49-3.46,2.76-.21.27-.92,1.2-1.05,1.86l-.05.24c-.63,1.13-.88,2.44-.75,3.72l-.03.14.04-.05c.12,1.02.48,2.02,1.1,2.89,1.09,1.55,2.6,2.5,4.63,2.92.61.13,1.26.19,1.99.19s1.49-.06,2.21-.13l.2-.02.49-.04c.87-.08,1.69-.15,2.51-.15.67,0,1.26.05,1.81.15l.09.02h.11s.48,0,.48,0l.33-.39c.2-.25.27-.59.19-.92l-.11-.46-.42-.21c-.55-.27-1.16-.49-1.87-.65-.86-.2-1.7-.22-2.52-.25-.25,0-.51-.02-.76-.03l-.5-.02c-1.18-.06-2.3-.11-3.38-.39-1.3-.34-2.2-.98-2.83-2.02-.4-.65-.39-1.35,0-1.96.12-.19.27-.36.44-.52,1.19-1.1,2.6-1.63,4.33-1.63h.07c.27.07.56.11.84.11.19,0,.39-.02.57-.05.08-.02.16-.04.24-.06.23-.07.45-.15.66-.24,1-.44,1.74-1.14,2.26-2.16.11-.22.22-.46.31-.71.03-.07.05-.14.07-.21.15-.45.22-.88.21-1.3.01-.08.02-.15.02-.23,0-.12.04-.27.08-.45l.02-.09c.49-2.02,1.25-3.42,2.39-4.39.31-.26.58-.4.81-.4.11,0,.23.03.36.1.36.18.66.54.99,1.16.53,1.03.74,2.23.66,3.77-.09,1.64-.33,3.28-.57,4.8-.2,1.23-.39,2.85-.15,4.52.02.17.05.6.43.96l1.62,1.52.06-2.22c.05-1.75.45-3.38.87-5.1.08-.34.17-.67.25-1.01.23-.96.45-1.91.58-2.88.36-2.62.02-4.8-1.04-6.67-.98-1.73-2.61-2.76-4.36-2.76h0Z" style="fill: none; stroke: #fff; stroke-width: .89px;"/>
            </g>
            <g>
              <path d="M25.03,49.08c-.58,2.07-.32,4.16.35,6.26.04.14.12.2.24.25.69.28.98.91.81,1.77-.6-.76-1.07-1.57-1.39-2.5-.64-1.91-.61-3.79-.2-5.66-.1.04-.11.12-.14.19-.54,1.42-.7,2.93-.56,4.53.11,1.19.25,2.38.05,3.54-.16.91-.2,1.84-.22,2.78-.01.75-.05,1.49-.25,2.2-.4,1.38-.73,2.79-.65,4.31.03.69.14,1.47.28,1.75-.14-3.06.54-5.61,2.8-7.28-.03.99-.35,1.38-1.12,1.41-.15,0-.21.11-.27.22-.84,1.54-1.33,3.22-1.31,5.14.03,2.51,1.57,4.65,3.7,5.08,1.6.32,2.99-.21,4.26-1.16,1.11-.83,1.96-1.98,2.83-3.12,1.07-1.4,2.11-2.84,3.46-3.9.02-.01.05-.04-.02-.09-.51.2-1,.49-1.47.83-.84.61-1.53,1.43-2.27,2.18-.97.99-1.93,2.01-3.05,2.77-1.16.79-2.42,1.17-3.84.76-1-.29-1.66-1.14-1.8-2.31-.04-.33-.04-.66-.02-.98.19-2.21,1.07-3.95,2.39-5.38.01-.02.03-.03.04-.05.29-.18.58-.44.78-.76.03-.05.06-.09.08-.14.1-.19.18-.38.25-.56.33-.86.4-1.7.19-2.64-.05-.21-.11-.43-.18-.65-.02-.06-.04-.12-.06-.17-.16-.42-.34-.72-.55-.94-.02-.05-.04-.09-.08-.14-.16-.2-.26-.44-.37-.68-.85-1.85-1.35-3.76-1.11-5.8.11-.96.46-1.73,1.28-2.06.64-.25,1.3-.13,1.95.12,1.26.48,2.25,1.46,3.1,2.66.93,1.32,1.76,2.73,2.56,4.16.69,1.23,1.45,2.39,2.44,3.32.08.07.15.19.31.18-1.29-1.73-2.11-3.72-3.02-5.66-.4-.86-.81-1.72-1.29-2.54-1.08-1.84-2.42-3.27-4.27-3.87-2.03-.66-4.02.42-4.65,2.65Z" style="fill: none; stroke: #fff; stroke-width: .89px;"/>
              <path d="M28.5,46.23c.39,0,.78.06,1.18.19,1.84.6,3.19,2.04,4.27,3.87.48.82.89,1.68,1.29,2.54.91,1.94,1.73,3.93,3.02,5.66,0,0,0,0-.01,0-.15,0-.22-.11-.29-.18-.99-.93-1.75-2.09-2.44-3.32-.8-1.43-1.62-2.84-2.56-4.16-.85-1.2-1.84-2.17-3.1-2.66-.4-.15-.8-.26-1.2-.26-.25,0-.5.04-.75.14-.82.33-1.16,1.1-1.28,2.06-.24,2.03.25,3.95,1.11,5.8.11.23.21.48.37.68.03.04.06.09.08.14.2.22.39.52.55.94.02.06.04.11.06.17.07.22.14.44.18.65.21.94.14,1.78-.19,2.64-.07.19-.16.37-.25.56-.02.05-.05.1-.08.14-.2.32-.48.59-.78.76-.01.02-.03.03-.04.05-1.32,1.43-2.2,3.18-2.39,5.38-.03.33-.02.66.02.98.14,1.18.81,2.03,1.8,2.31.39.11.77.17,1.14.17.96,0,1.85-.35,2.69-.92,1.13-.76,2.08-1.79,3.05-2.77.74-.75,1.43-1.57,2.27-2.18.47-.34.96-.63,1.47-.83.07.05.03.08.02.09-1.35,1.06-2.39,2.5-3.46,3.9-.87,1.13-1.72,2.29-2.83,3.12-1.01.76-2.11,1.25-3.32,1.25-.3,0-.61-.03-.93-.1-2.13-.43-3.67-2.57-3.7-5.08-.03-1.92.47-3.6,1.31-5.14.06-.11.12-.21.27-.22.77-.03,1.09-.42,1.12-1.41-2.26,1.67-2.94,4.22-2.8,7.28-.14-.28-.25-1.05-.28-1.75-.07-1.53.26-2.93.65-4.31.2-.71.24-1.45.25-2.2.02-.94.07-1.87.22-2.78.2-1.17.06-2.35-.05-3.54-.15-1.59.01-3.11.56-4.53.03-.07.04-.15.14-.19-.41,1.87-.44,3.75.2,5.66.31.93.79,1.75,1.39,2.5.16-.87-.13-1.49-.81-1.77-.12-.05-.2-.11-.24-.25-.67-2.1-.93-4.2-.35-6.26.51-1.8,1.89-2.85,3.47-2.85M28.5,45.23c-1.95,0-3.61,1.24-4.31,3.19-.19.14-.33.34-.42.6-.58,1.51-.79,3.18-.62,4.98l.03.29c.1,1.06.19,2.05.03,2.99-.18,1.04-.22,2.06-.24,2.93-.01.64-.04,1.33-.22,1.94-.41,1.41-.77,2.96-.69,4.64.02.36.1,1.57.39,2.15l.12.23c.24,1.33.86,2.51,1.72,3.39l.26.51v-.27c.67.62,1.5,1.06,2.41,1.24.38.08.76.12,1.13.12,1.34,0,2.62-.48,3.93-1.45,1.16-.87,2.04-2.03,2.9-3.15l.12-.16.31-.41c.95-1.25,1.85-2.44,2.97-3.32l.39-.3.02-.53c0-.33-.16-.64-.44-.85l-.45-.34-.52.2c-.55.22-1.1.53-1.69.95-.71.51-1.3,1.13-1.86,1.73-.18.19-.36.38-.54.56l-.35.36c-.84.86-1.64,1.67-2.55,2.29-.75.51-1.44.75-2.13.75-.28,0-.58-.04-.87-.13-.82-.23-1.03-1.02-1.09-1.47-.03-.26-.03-.52-.01-.78.16-1.82.84-3.38,2.09-4.75.39-.26.73-.61.97-1.01.04-.07.08-.14.12-.21.11-.22.21-.44.29-.66.4-1.05.48-2.1.23-3.21-.05-.24-.12-.5-.21-.76-.02-.07-.05-.14-.07-.21-.17-.45-.38-.83-.64-1.14-.04-.07-.08-.13-.13-.19-.07-.09-.14-.24-.21-.4l-.04-.08c-.89-1.93-1.22-3.61-1.02-5.26.12-1.04.5-1.18.66-1.25.12-.05.24-.07.38-.07.23,0,.51.06.84.19.95.36,1.79,1.1,2.64,2.3.93,1.31,1.75,2.73,2.5,4.07.61,1.08,1.46,2.46,2.63,3.56.11.11.43.45.97.45h.06s1.9-.08,1.9-.08l-1.14-1.52c-1.02-1.36-1.73-2.9-2.48-4.53-.15-.32-.29-.64-.44-.95-.42-.9-.85-1.79-1.34-2.62-1.34-2.28-2.92-3.7-4.82-4.32-.49-.16-1-.24-1.49-.24h0Z" style="fill: none; stroke: #fff; stroke-width: .89px;"/>
            </g>
            <g>
              <path d="M77,29.18c-1.06,1.86-1.21,3.91-.92,6.04.13.94.34,1.87.56,2.79.49,2.06,1.08,4.1,1.15,6.31.13-.12.11-.25.13-.36.2-1.42.07-2.83-.15-4.22-.26-1.62-.49-3.25-.58-4.9-.08-1.5.08-2.95.76-4.28.35-.68.78-1.28,1.43-1.61.84-.41,1.58-.14,2.26.44,1.44,1.23,2.24,2.96,2.71,4.92.06.25.13.5.13.76,0,.06,0,.11.02.16-.02.31.02.66.16,1.08.02.05.04.11.06.17.08.21.17.41.26.6.42.82.99,1.36,1.77,1.7.17.07.35.14.54.2.05.01.1.03.15.04.35.07.74.03,1.07-.07.02,0,.04,0,.06,0,1.91-.03,3.66.5,5.16,1.9.22.21.42.44.59.7.62.93.62,2.05.03,3.03-.85,1.39-2.05,2.11-3.44,2.47-1.34.35-2.71.37-4.07.45-1.04.05-2.08.02-3.1.25-.57.13-1.13.31-1.65.57-.02.09.03.08.05.08,1.7-.32,3.39-.12,5.08.03,1.37.12,2.74.25,4.11-.03,1.57-.32,2.97-1.04,4.01-2.52,1.38-1.96,1.26-4.66-.26-6.44-1.16-1.36-2.58-2.15-4.18-2.57-.12-.03-.22-.06-.34.06-.61.58-1.1.56-1.73-.11,2.77-.6,4.87.66,6.65,2.9-.06-.3-.45-.93-.86-1.44-.88-1.12-2-1.85-3.16-2.5-.59-.34-1.08-.83-1.55-1.34-.59-.64-1.2-1.26-1.88-1.77-.87-.66-1.5-1.6-2.14-2.51-.87-1.23-1.93-2.17-3.22-2.73-.07-.03-.13-.07-.23-.03,1.47.99,2.65,2.28,3.33,4.12.33.9.46,1.84.47,2.83-.66-.48-.82-1.14-.46-1.87.06-.13.09-.23.04-.36-.77-1.99-1.86-3.66-3.59-4.65-1.86-1.07-4.07-.27-5.24,1.78Z" style="fill: none; stroke: #fff; stroke-width: .89px;"/>
              <path d="M80.49,26.92c.59,0,1.18.15,1.74.48,1.72.99,2.81,2.66,3.59,4.65.05.13.03.23-.04.36-.36.73-.2,1.4.46,1.87,0-.99-.13-1.94-.47-2.83-.68-1.83-1.86-3.12-3.33-4.12.03-.02.06-.02.08-.02.05,0,.1.03.14.05,1.29.57,2.35,1.5,3.22,2.73.65.92,1.27,1.86,2.14,2.51.68.51,1.29,1.13,1.88,1.77.47.51.96,1,1.55,1.34,1.16.66,2.28,1.38,3.16,2.5.4.51.79,1.14.86,1.44-1.48-1.87-3.18-3.05-5.31-3.05-.43,0-.88.05-1.35.15.33.35.63.53.92.53.26,0,.52-.14.81-.41.07-.06.13-.08.19-.08.05,0,.1.01.15.03,1.59.42,3.01,1.21,4.18,2.57,1.52,1.78,1.64,4.48.26,6.44-1.04,1.48-2.44,2.19-4.01,2.52-.6.12-1.19.17-1.79.17-.77,0-1.55-.07-2.32-.14-1.03-.09-2.06-.2-3.09-.2-.66,0-1.33.04-2,.17,0,0-.01,0-.02,0-.02,0-.05-.01-.03-.08.52-.26,1.08-.44,1.65-.57,1.03-.23,2.07-.2,3.1-.25,1.36-.07,2.73-.1,4.07-.45,1.39-.36,2.59-1.07,3.44-2.47.6-.98.59-2.09-.03-3.03-.17-.26-.37-.49-.59-.7-1.47-1.36-3.16-1.9-5.01-1.9-.05,0-.1,0-.15,0,0,0-.01,0-.02,0-.01,0-.03,0-.04,0-.22.07-.46.11-.7.11-.13,0-.25-.01-.37-.04-.05,0-.1-.02-.15-.04-.19-.06-.37-.12-.54-.2-.78-.34-1.35-.88-1.77-1.7-.09-.18-.18-.38-.26-.6-.02-.06-.04-.11-.06-.17-.14-.42-.18-.77-.16-1.08-.02-.05-.02-.1-.02-.16,0-.26-.07-.51-.13-.76-.48-1.96-1.27-3.68-2.71-4.92-.45-.39-.94-.64-1.46-.64-.26,0-.53.06-.8.2-.65.32-1.08.92-1.43,1.61-.68,1.33-.85,2.78-.76,4.28.09,1.65.32,3.28.58,4.9.22,1.4.35,2.8.15,4.22-.02.11,0,.25-.13.36-.06-2.22-.66-4.25-1.15-6.31-.22-.92-.43-1.84-.56-2.79-.29-2.13-.14-4.18.92-6.04.81-1.43,2.13-2.25,3.49-2.25M80.49,25.92c-1.75,0-3.38,1.03-4.36,2.76-1.06,1.87-1.4,4.05-1.04,6.67.13.97.35,1.92.58,2.88.08.34.16.67.25,1.01.42,1.72.83,3.35.87,5.1l.06,2.22,1.62-1.52c.38-.36.42-.78.43-.94.24-1.69.04-3.31-.15-4.54-.24-1.52-.48-3.16-.57-4.8-.08-1.54.13-2.73.66-3.77.32-.63.63-.99.99-1.16.13-.06.25-.1.36-.1.23,0,.5.13.81.4,1.14.97,1.9,2.37,2.39,4.39l.02.09c.04.18.08.33.08.45,0,.08,0,.16.02.23,0,.42.06.85.21,1.3.02.07.05.14.07.21.09.25.2.49.31.71.52,1.01,1.26,1.72,2.26,2.16.21.09.43.17.66.24.08.02.16.04.24.06.18.04.37.05.57.05.28,0,.56-.04.84-.11h.07c1.73,0,3.15.53,4.33,1.63.17.15.31.33.44.52.4.61.41,1.3,0,1.95-.63,1.04-1.54,1.68-2.83,2.02-1.08.28-2.2.33-3.38.39l-.5.02c-.25.01-.51.02-.76.03-.81.03-1.65.05-2.52.25-.71.16-1.33.37-1.87.65l-.42.21-.11.46c-.08.33,0,.67.19.92l.3.38h.51s.09.01.09.01l.11-.02c.55-.1,1.14-.15,1.81-.15.82,0,1.64.07,2.51.15l.49.04.2.02c.72.06,1.46.13,2.21.13s1.38-.06,1.99-.19c2.02-.42,3.54-1.37,4.63-2.92.61-.87.98-1.87,1.1-2.89l.04.05-.03-.14c.13-1.28-.12-2.59-.75-3.72l-.05-.24c-.13-.66-.84-1.59-1.05-1.86-1-1.27-2.25-2.07-3.46-2.76-.44-.25-.83-.62-1.31-1.15-.55-.6-1.23-1.29-2.02-1.89-.68-.51-1.21-1.27-1.77-2.07l-.16-.22c-1-1.42-2.23-2.45-3.63-3.07-.08-.04-.27-.13-.54-.13-.07,0-.13,0-.2.02-.59-.27-1.21-.41-1.85-.41h0Z" style="fill: none; stroke: #fff; stroke-width: .89px;"/>
            </g>
            <g>
              <path d="M95.19,45.77c-1.84.6-3.19,2.04-4.27,3.87-.48.82-.89,1.68-1.29,2.54-.91,1.94-1.73,3.93-3.02,5.66.16,0,.23-.1.31-.18.99-.93,1.75-2.09,2.44-3.32.8-1.43,1.62-2.84,2.56-4.16.85-1.2,1.84-2.17,3.1-2.66.65-.25,1.31-.37,1.95-.12.82.33,1.16,1.1,1.28,2.06.24,2.03-.25,3.95-1.11,5.8-.11.23-.21.48-.37.68-.03.04-.06.09-.08.14-.2.22-.39.52-.55.94-.02.06-.04.11-.06.17-.07.22-.14.44-.18.65-.21.94-.14,1.78.19,2.64.07.19.16.37.25.56.02.05.05.1.08.14.2.32.48.59.78.76.01.02.03.03.04.05,1.32,1.43,2.2,3.18,2.39,5.38.03.33.02.66-.02.98-.14,1.18-.81,2.03-1.8,2.31-1.42.41-2.67.03-3.84-.76-1.13-.76-2.08-1.79-3.05-2.77-.74-.75-1.43-1.57-2.27-2.18-.47-.34-.96-.63-1.47-.83-.07.05-.03.08-.02.09,1.35,1.06,2.39,2.5,3.46,3.9.87,1.13,1.72,2.29,2.83,3.12,1.27.95,2.66,1.48,4.26,1.16,2.13-.43,3.67-2.57,3.7-5.08.03-1.92-.47-3.6-1.31-5.14-.06-.11-.12-.21-.27-.22-.77-.03-1.09-.42-1.12-1.41,2.26,1.67,2.94,4.22,2.8,7.28.14-.28.25-1.05.28-1.75.07-1.53-.26-2.93-.65-4.31-.2-.71-.24-1.45-.25-2.2-.02-.94-.07-1.87-.22-2.78-.2-1.17-.06-2.35.05-3.54.15-1.59-.01-3.11-.56-4.53-.03-.07-.04-.15-.14-.19.41,1.87.44,3.75-.2,5.66-.31.93-.79,1.75-1.39,2.5-.16-.87.13-1.49.81-1.77.12-.05.2-.11.24-.25.67-2.1.93-4.2.35-6.26-.63-2.24-2.62-3.32-4.65-2.65Z" style="fill: none; stroke: #fff; stroke-width: .89px;"/>
              <path d="M96.38,45.58c1.58,0,2.96,1.05,3.47,2.85.58,2.07.32,4.16-.35,6.26-.04.14-.12.2-.24.25-.69.28-.98.91-.81,1.77.6-.76,1.07-1.57,1.39-2.5.64-1.91.61-3.79.2-5.66.1.04.11.12.14.19.54,1.42.7,2.93.56,4.53-.11,1.19-.25,2.38-.05,3.54.16.91.2,1.84.22,2.78.01.75.05,1.49.25,2.2.4,1.38.73,2.79.65,4.31-.03.69-.14,1.47-.28,1.75.14-3.06-.54-5.61-2.8-7.28.03.99.35,1.38,1.12,1.41.15,0,.21.11.27.22.84,1.54,1.33,3.22,1.31,5.14-.03,2.51-1.57,4.65-3.7,5.08-.32.06-.63.1-.93.1-1.22,0-2.31-.49-3.32-1.25-1.11-.83-1.96-1.98-2.83-3.12-1.07-1.4-2.11-2.84-3.46-3.9-.02-.01-.05-.04.02-.09.51.2,1,.49,1.47.83.84.61,1.53,1.43,2.27,2.18.97.99,1.93,2.01,3.05,2.77.84.57,1.73.92,2.69.92.37,0,.75-.05,1.14-.17,1-.29,1.66-1.14,1.8-2.31.04-.33.04-.66.02-.98-.19-2.21-1.07-3.95-2.39-5.38-.01-.02-.03-.03-.04-.05-.29-.18-.58-.44-.78-.76-.03-.05-.06-.09-.08-.14-.1-.19-.18-.38-.25-.56-.33-.86-.4-1.7-.19-2.64.05-.21.11-.43.18-.65.02-.06.04-.12.06-.17.16-.42.34-.72.55-.94.02-.05.04-.09.08-.14.16-.2.26-.44.37-.68.85-1.85,1.35-3.76,1.11-5.8-.11-.96-.46-1.73-1.28-2.06-.25-.1-.49-.14-.75-.14-.4,0-.8.11-1.2.26-1.26.48-2.25,1.46-3.1,2.66-.93,1.32-1.76,2.73-2.56,4.16-.69,1.23-1.45,2.39-2.44,3.32-.08.07-.15.18-.29.18,0,0,0,0-.01,0,1.29-1.73,2.11-3.72,3.02-5.66.4-.86.81-1.72,1.29-2.54,1.08-1.84,2.42-3.27,4.27-3.87.4-.13.8-.19,1.18-.19M96.38,44.58c-.5,0-1,.08-1.49.24-1.9.62-3.47,2.03-4.82,4.32-.49.84-.91,1.72-1.34,2.62-.15.32-.29.63-.44.95-.75,1.63-1.46,3.17-2.48,4.53l-1.14,1.52,1.9.08h.02s.04,0,.04,0c.55,0,.87-.33.97-.44,1.18-1.1,2.03-2.48,2.64-3.56.75-1.34,1.58-2.76,2.5-4.07.85-1.21,1.69-1.94,2.64-2.3.34-.13.62-.19.84-.19.14,0,.26.02.38.07.16.06.53.21.66,1.25.2,1.65-.13,3.33-1.02,5.26l-.04.08c-.07.16-.14.31-.21.4-.05.06-.09.13-.13.19-.26.31-.47.69-.64,1.14-.03.07-.05.14-.07.21-.09.26-.16.51-.21.76-.25,1.12-.17,2.17.23,3.21.08.22.18.44.29.66.04.07.08.14.12.21.24.39.58.74.97,1.01,1.25,1.37,1.93,2.92,2.09,4.75.02.26.02.52-.01.78-.05.45-.27,1.24-1.09,1.47-.29.08-.59.13-.87.13-.69,0-1.38-.25-2.13-.75-.91-.62-1.7-1.43-2.55-2.29l-.35-.36c-.18-.18-.36-.37-.54-.56-.57-.6-1.16-1.22-1.86-1.73-.59-.42-1.14-.74-1.69-.95l-.52-.2-.45.34c-.27.21-.43.52-.44.85v.49s.41.34.41.34c1.12.88,2.02,2.06,2.97,3.32l.31.41.12.16c.85,1.12,1.73,2.27,2.9,3.15,1.3.98,2.59,1.45,3.93,1.45.37,0,.76-.04,1.13-.12.91-.18,1.73-.62,2.42-1.24v.27s.25-.51.25-.51c.86-.88,1.48-2.06,1.72-3.39l.12-.23c.3-.58.37-1.79.39-2.15.08-1.68-.28-3.22-.69-4.64-.18-.62-.2-1.3-.22-1.94-.02-.87-.06-1.89-.24-2.93-.16-.94-.07-1.94.03-2.99l.03-.29c.17-1.8-.04-3.48-.62-4.98-.09-.26-.23-.46-.42-.6-.7-1.95-2.35-3.19-4.31-3.19h0Z" style="fill: none; stroke: #fff; stroke-width: .89px;"/>
            </g>
            <path d="M37.37,54.14c-.5-.11-.93-.35-1.37-.58-1.22-.65-2.26-1.53-3.19-2.53-.26-.28-.56-.52-.92-.67-.26-.11-.51-.15-.74.06-.1.1-.14.04-.16-.06-.05-.27-.09-.54-.14-.81-.02-.13.05-.17.15-.21.42-.16.81-.06,1.17.19.41.28.71.66,1.04,1.02.71.78,1.36,1.61,2.21,2.26.56.42,1.13.81,1.72,1.18.07.05.15.1.22.15Z" style="fill: none; stroke: #fff; stroke-width: .89px;"/>
            <path d="M87.59,55.13c.5-.11.93-.35,1.37-.58,1.22-.65,2.26-1.53,3.19-2.53.26-.28.56-.52.92-.67.26-.11.51-.15.74.06.1.1.14.04.16-.06.05-.27.09-.54.14-.81.02-.13-.05-.17-.15-.21-.42-.16-.81-.06-1.17.19-.41.28-.71.66-1.04,1.02-.71.78-1.36,1.61-2.21,2.26-.56.42-1.13.81-1.72,1.18-.07.05-.15.1-.22.15Z" style="fill: none; stroke: #fff; stroke-width: .89px;"/>
            <path d="M59.79,43.45c-.24-.9-.48-1.74-.69-2.58-.62-2.42-1.86-4.51-3.12-6.6-.36-.59-.71-1.19-.99-1.84-.33-.78-.47-1.57-.01-2.36.29-.49.37-.52.85-.27.36.18.71.38,1.06.58.11.06.26.16.04.28-.73.4-.62,1.08-.48,1.73.16.75.5,1.43.87,2.09,1.43,2.56,2.21,5.33,2.5,8.27.02.21.06.44-.04.72Z" style="fill: none; stroke: #fff; stroke-width: .89px;"/>
            <path d="M65.04,43.34c-.09-.91.07-1.78.22-2.65.43-2.45,1.34-4.71,2.53-6.86.33-.6.57-1.24.63-1.94.04-.51-.03-.96-.52-1.22-.22-.12-.15-.22.01-.3.43-.23.87-.45,1.3-.69.2-.11.32,0,.44.14.52.63.56,1.35.34,2.11-.25.85-.73,1.58-1.16,2.34-.93,1.64-1.99,3.21-2.61,5.03-.4,1.18-.75,2.38-1.05,3.59-.04.15-.08.3-.13.45Z" style="fill: none; stroke: #fff; stroke-width: .89px;"/>
            <path d="M37.37,54.14c-.5-.11-.93-.35-1.37-.58-1.22-.65-2.26-1.53-3.19-2.53-.26-.28-.56-.52-.92-.67-.26-.11-.51-.15-.74.06-.1.1-.14.04-.16-.06-.05-.27-.09-.54-.14-.81-.02-.13.05-.17.15-.21.42-.16.81-.06,1.17.19.41.28.71.66,1.04,1.02.71.78,1.36,1.61,2.21,2.26.56.42,1.13.81,1.72,1.18.07.05.15.1.22.15Z" style="fill: none; stroke: #fff; stroke-width: .89px;"/>
            <path d="M87.59,55.13c.5-.11.93-.35,1.37-.58,1.22-.65,2.26-1.53,3.19-2.53.26-.28.56-.52.92-.67.26-.11.51-.15.74.06.1.1.14.04.16-.06.05-.27.09-.54.14-.81.02-.13-.05-.17-.15-.21-.42-.16-.81-.06-1.17.19-.41.28-.71.66-1.04,1.02-.71.78-1.36,1.61-2.21,2.26-.56.42-1.13.81-1.72,1.18-.07.05-.15.1-.22.15Z" style="fill: none; stroke: #fff; stroke-width: .89px;"/>
          </g>
        </g>
        <path d="M48.07,47.49c-.55-.52-.94-1.17-1.33-1.81-1.1-1.8-1.81-3.76-2.3-5.82-.14-.57-.35-1.12-.7-1.59-.25-.34-.55-.59-.97-.46-.19.06-.2-.05-.16-.2.12-.4.26-.8.37-1.2.06-.19.18-.19.33-.17.65.09,1.07.52,1.35,1.13.32.69.44,1.43.61,2.16.36,1.59.61,3.2,1.25,4.71.42.98.87,1.95,1.36,2.89.06.12.12.24.18.36Z" style="fill: url(#linear-gradient-2); stroke-width: 0px;"/>
        <path d="M62.24,40.42c13.2-.05,23.9,10.33,23.94,23.24.05,12.88-10.53,23.45-23.4,23.6-13.37.16-24.1-10.6-24.16-23.07-.07-13.18,10.43-23.72,23.62-23.77ZM68.48,63.85c0-3.41-2.57-5.99-6-6.01-3.49-.02-6.16,2.57-6.17,5.96,0,3.42,2.65,6.03,6.12,6.02,3.42,0,6.04-2.6,6.04-5.97ZM75.15,77.62c-.05-.18-.1-.45-.21-.7-1.05-2.24-2.58-4.08-4.7-5.4-.39-.24-.89-.61-1.33-.17-.39.39-.19.92.01,1.36,1.01,2.18,2.51,3.95,4.52,5.3.26.17.55.31.85.39.58.16.86-.1.86-.78ZM49.63,77.59c0,.87.48,1.11,1.32.62,2.3-1.33,3.92-3.28,4.97-5.68.18-.41.31-.9-.12-1.24-.4-.31-.8-.02-1.16.19-2.21,1.29-3.72,3.18-4.81,5.44-.12.24-.16.52-.21.68ZM49.65,49.92c.01.07,0,.14.03.2,1.01,2.72,2.79,4.79,5.37,6.2.27.15.6.25.89.02.32-.27.26-.61.14-.95-.96-2.59-2.78-4.47-5.06-5.98-.17-.11-.39-.17-.59-.19-.52-.07-.79.17-.77.7ZM46.53,54.04c-1.06.02-1.39.51-.88,1.13,1.85,2.25,4.31,3.55,7.18,4.04.83.14,1.2-.5.66-1.17-1.84-2.28-4.35-3.45-6.96-4.01ZM69.53,80.19c-.04-2.03-1.24-5.18-2.47-6.56-.32-.36-.68-.79-1.24-.56-.51.21-.46.74-.43,1.18.18,2.39.93,4.58,2.38,6.52.31.42.68,1.05,1.32.82.65-.24.37-.95.44-1.4ZM78.14,73.56c.63-.04,1.03.04,1.22-.33.19-.36-.06-.66-.25-.94-.42-.61-1.01-1.06-1.6-1.47-1.63-1.14-3.34-2.13-5.38-2.39-.34-.04-.72-.07-.95.27-.21.31-.06.62.14.85,1.86,2.21,4.29,3.43,6.82,4.01ZM59.46,53.07c-.32-2.3-1.06-4.56-2.62-6.5-.27-.34-.61-.74-1.14-.53-.47.19-.43.67-.42,1.08.05,2.52,1,4.74,2.44,6.78.16.22.37.41.6.57.49.34.87.21,1.03-.36.08-.29.07-.61.12-1.05ZM72.02,59.22c2.04-.31,3.85-1.24,5.52-2.46.53-.38.99-.86,1.43-1.34.27-.3.55-.69.27-1.11-.25-.37-.67-.33-1.05-.23-.64.16-1.3.28-1.91.53-1.84.76-3.56,1.73-4.88,3.26-.25.29-.48.63-.26,1.03.17.31.5.34.87.32ZM55.27,79.69c-.02,1.46.1,1.89.48,1.92.66.07,1-.44,1.31-.88,1.4-1.95,2.23-4.12,2.34-6.52.02-.44.07-.96-.46-1.16-.53-.2-.85.24-1.13.57-1.57,1.9-2.32,4.13-2.55,6.06ZM63.84,49.42c-.04-.99-.11-2.06-.4-3.09-.16-.57-.25-1.39-1.01-1.4-.77-.01-.85.8-1.03,1.37-.3.99-.42,2.03-.41,3.06,0,1.13.08,2.28.44,3.36.18.54.3,1.28,1.03,1.27.67-.01.76-.73.91-1.24.32-1.06.41-2.16.46-3.33ZM69.53,47.61c-.08-.62.17-1.31-.49-1.56-.68-.26-.97.41-1.29.82-1.48,1.92-2.21,4.12-2.38,6.5-.04.48-.02,1.05.54,1.23.52.17.84-.3,1.1-.63,1.51-1.89,2.27-4.08,2.52-6.36ZM78.75,67.84c.59-.03,1.18-.04,1.77-.1.45-.05.97-.1,1.08-.64.09-.48-.33-.74-.7-.93-2.28-1.2-4.74-1.58-7.29-1.36-.49.04-1.16.13-1.23.76-.07.61.54.83,1,1.05,1.7.79,3.48,1.22,5.37,1.23ZM46.68,73.55c2.4-.54,4.74-1.73,6.61-3.75.28-.3.6-.65.32-1.09-.27-.42-.75-.34-1.15-.27-1.93.35-3.6,1.25-5.17,2.36-.59.42-1.19.85-1.57,1.48-.17.29-.4.6-.18.95.19.31.53.27,1.15.3ZM45.8,67.83c2.06-.03,4.03-.41,5.87-1.34.4-.2.85-.46.73-1.01-.11-.48-.58-.55-1-.61-2.65-.39-5.13.13-7.5,1.28-.12.06-.24.15-.34.24-.62.54-.53,1.07.27,1.25.64.15,1.31.13,1.97.19ZM63.84,78.28c-.03-1.39-.15-2.68-.64-3.91-.13-.31-.27-.68-.68-.71-.46-.04-.69.32-.82.67-.97,2.57-.93,5.16,0,7.74.13.35.35.73.81.68.4-.04.54-.4.67-.71.51-1.23.61-2.53.67-3.76ZM49.85,62.82c.38-.02.94-.01,1.5-.08.44-.06.97-.12,1.08-.65.1-.55-.39-.8-.78-.98-2.35-1.1-4.82-1.61-7.42-1.22-.44.07-.98.12-1.04.68-.06.54.45.74.84.94,1.78.89,3.67,1.29,5.84,1.32ZM74.81,62.83c2.18-.03,4.09-.35,5.86-1.27.45-.23,1.08-.44.93-1.08-.14-.6-.79-.64-1.29-.68-2.45-.2-4.8.18-7.01,1.26-.09.05-.19.09-.27.15-.32.21-.71.43-.65.86.07.49.56.59.97.65.55.09,1.11.08,1.47.11ZM68.73,55.52c-.04.85.42,1.11,1.28.63,2.34-1.3,3.94-3.25,4.98-5.67.16-.38.33-.83-.07-1.14-.39-.31-.82-.07-1.17.14-2.25,1.3-3.81,3.2-4.86,5.52-.08.19-.11.4-.15.53Z" style="fill: url(#linear-gradient-3); stroke-width: 0px;"/>
        <g>
          <path d="M61.83,103.05c-5.62,0-10.44-2.31-12.56-5.95-.52.26-1.12.47-1.75.55-.19.02-.38.04-.56.04-1.33,0-2.38-.67-2.89-1.85-.35-.82-.34-1.77.05-2.84.22-.61.52-1.17.8-1.7.19-.35.37-.68.52-1.02.69-1.53.83-3.26.41-4.88-.14-.54-.35-1.09-.56-1.62-.17-.45-.35-.92-.5-1.39-.47-1.5-.51-2.77-.14-3.89.33-.98,1.17-2.04,2.36-2.48-.36-.69-.16-1.52.27-2.06.23-.29.49-.48.69-.64.08-.06.15-.11.21-.17,0,0,0,0,0,0,0-.05,0-.09,0-.14-.52-.78-.51-1.82-.16-2.56.31-.69.83-1.18,1.37-1.59.09-4.98,1.26-9.98,3.4-14.51.28-.6.54-1.25.78-1.88.61-1.54,1.23-3.13,2.41-4.44-1.18-1.69-2.5-4.47-2.73-4.94-.21-.32-.29-.68-.25-1.06.09-.94,1.04-1.65,2.08-2.34l.17-.11c.72-.5,1.5-.91,2.31-1.23l.65-.26.35.5c.34-.04.72-.07,1.1-.1,1.46-.13,2.97-.27,4.41-.57l.78-.16.16.51.37-.44.68.21c1.17.36,2.22.87,3.18,1.54l.17.11c1.04.69,1.98,1.4,2.08,2.34.04.38-.05.75-.26,1.06-.22.48-1.54,3.26-2.73,4.94,1.18,1.31,1.8,2.9,2.41,4.44.25.63.5,1.27.78,1.88,2.14,4.52,3.31,9.53,3.4,14.51.54.41,1.06.9,1.37,1.59.34.74.36,1.78-.16,2.56,0,.04,0,.09,0,.13.09.09.15.13.22.18.21.16.47.35.69.64.43.55.62,1.38.27,2.06,1.19.44,2.03,1.51,2.36,2.48.38,1.12.33,2.39-.14,3.89-.15.47-.32.94-.5,1.39-.21.54-.42,1.09-.56,1.62-.43,1.62-.28,3.35.41,4.88.15.33.32.65.49.97.31.57.6,1.12.83,1.75.39,1.07.4,2.03.05,2.84-.51,1.18-1.56,1.85-2.89,1.85-.18,0-.36-.01-.56-.04-.59-.08-1.15-.26-1.65-.5-2.31,4.32-8.39,5.89-13.48,5.9h-.03Z" style="fill: #fff; stroke-width: 0px;"/>
          <path d="M64.25,38.78c.03.08.05.17.09.25.1.24.33.44.56.44.08,0,.17-.03.24-.09.2-.16.37-.35.54-.55.04.01.08.02.12.04l.06.02c1.03.32,1.99.79,2.88,1.4h0s.11.08.18.12c.82.55,1.63,1.13,1.69,1.69.02.2-.03.38-.15.54,0,0-1.83,3.95-3.12,5.46,1.41,1.26,2.09,3,2.75,4.69.25.64.51,1.3.81,1.93,2.13,4.52,3.28,9.53,3.32,14.5h-.12c.06.04.12.08.17.12.56.39,1.11.84,1.4,1.47.28.6.24,1.47-.32,1.96.06.1.1.24.07.43-.03.18.08.4.31.6.08.07.17.14.26.21.19.14.38.29.54.48.28.35.39.9.06,1.27-.07.08-.16.14-.23.2-.05.04-.14.11-.15.12,0,.02.04.06.06.09.03.04.06.08.09.13.06.11.09.24.1.37,1.24.07,2.23,1.08,2.57,2.09.32.94.27,2.03-.14,3.35-.14.46-.31.9-.48,1.34-.21.56-.43,1.13-.58,1.71-.48,1.81-.32,3.75.46,5.47.16.36.35.71.54,1.06.27.51.56,1.04.76,1.6.31.85.33,1.59.07,2.19-.37.86-1.11,1.32-2.08,1.32-.14,0-.29,0-.44-.03-1.28-.17-2.42-.98-2.98-1.45-.02-.02-.03-.02-.03-.02-.03,0,.81.85.8.85,0,0,0,0-.03-.03-1.7,4.08-7.3,6.03-12.99,6.04-.01,0-.02,0-.03,0-5.07,0-10.22-2.05-12.13-6.13,0,0,0,0,0,0,0,0,.7-.71.69-.71,0,0,0,0,0,0-.56.47-1.7,1.28-2.98,1.45-.15.02-.3.03-.44.03h0c-.98,0-1.71-.46-2.08-1.32-.26-.6-.24-1.34.07-2.19.2-.56.49-1.09.76-1.6.18-.34.38-.7.54-1.06.77-1.71.93-3.66.46-5.47-.15-.58-.37-1.15-.58-1.71-.17-.43-.34-.88-.48-1.34-.41-1.32-.46-2.41-.14-3.35.34-1.01,1.33-2.02,2.57-2.09,0-.13.03-.26.1-.37.02-.04.05-.09.09-.13.02-.03.05-.07.06-.09-.01-.01-.1-.08-.15-.12-.07-.06-.16-.12-.23-.2-.33-.37-.22-.92.06-1.27.16-.2.35-.34.54-.48.09-.07.18-.14.26-.21.23-.2.35-.43.31-.6-.04-.19,0-.33.07-.43-.57-.5-.6-1.36-.32-1.96.29-.63.84-1.08,1.4-1.47.06-.04.11-.08.17-.12h-.12c.04-4.97,1.19-9.99,3.32-14.5.3-.63.56-1.29.81-1.93.66-1.68,1.34-3.42,2.75-4.69-1.29-1.51-3.12-5.46-3.12-5.46-.11-.16-.17-.34-.15-.54.06-.56.87-1.15,1.69-1.69.07-.05.13-.09.18-.12h0c.67-.46,1.38-.84,2.13-1.13.13.18.34.32.52.32.01,0,.02,0,.03,0,1.94-.19,3.89-.31,5.81-.7M65.46,36.74l-1.57.32c-1.39.29-2.81.42-4.31.55-.2.02-.4.04-.6.05l-.45-.65-1.29.51c-.87.34-1.7.79-2.48,1.32l-.14.09c-1,.67-2.34,1.56-2.49,3-.05.55.07,1.1.36,1.57.28.6,1.33,2.79,2.41,4.47-1.01,1.32-1.6,2.82-2.13,4.18-.24.61-.49,1.25-.76,1.82-2.13,4.51-3.33,9.49-3.47,14.45-.5.43-.98.95-1.3,1.66-.42.91-.43,1.92-.1,2.78-.17.14-.36.32-.54.54-.51.64-.72,1.41-.63,2.14-1.07.65-1.82,1.69-2.15,2.66-.44,1.3-.4,2.75.13,4.43.16.51.34.98.52,1.44.2.51.4,1.04.53,1.53.37,1.42.25,2.95-.36,4.3-.13.3-.31.63-.48.94-.29.54-.62,1.15-.86,1.83-.47,1.29-.48,2.46-.03,3.49.66,1.51,2,2.38,3.7,2.38.22,0,.44-.01.67-.04.45-.06.89-.17,1.3-.32,2.45,3.53,7.31,5.73,12.9,5.73,5.11,0,11.15-1.54,13.88-5.68.37.13.76.22,1.16.27.23.03.45.04.67.04,1.69,0,3.04-.87,3.7-2.38.45-1.03.44-2.2-.03-3.49-.25-.68-.57-1.29-.86-1.83-.17-.32-.35-.65-.48-.95-.61-1.35-.73-2.87-.36-4.3.13-.49.33-1.02.53-1.53.18-.46.36-.94.52-1.44.53-1.68.57-3.13.13-4.43-.33-.97-1.08-2.02-2.15-2.66.09-.73-.12-1.51-.63-2.14-.18-.22-.36-.4-.54-.54.34-.86.32-1.87-.1-2.78-.32-.7-.8-1.23-1.3-1.65-.15-4.96-1.35-9.94-3.47-14.45-.27-.57-.52-1.21-.76-1.82-.53-1.36-1.12-2.86-2.13-4.18,1.08-1.68,2.13-3.87,2.41-4.47.28-.47.41-1.02.36-1.57-.14-1.44-1.48-2.33-2.46-2.98l-.16-.11c-1.03-.71-2.16-1.26-3.36-1.63l-.06-.02-.12-.04-.67-.21-.07-.22h0Z" style="fill: #fff; stroke-width: 0px;"/>
        </g>
        <path d="M62.4,85.13s0,0,0,0c-.62-.17-1.79-1.02-1.94.18,2.32.56,1.56.55,3.87,0-.14-1.18-1.31-.37-1.93-.17Z" style="fill: url(#linear-gradient-4); stroke-width: 0px;"/>
        <path d="M62.25,68.8l-.47,1.8c-.15.65-.31,1.36-.42,2.03-.8,4.7,2.57,4.61,1.77.02-.16-.93-.65-3.11-.88-3.85h0Z" style="fill: url(#linear-gradient-5); fill-rule: evenodd; stroke-width: 0px;"/>
        <path d="M63.12,79.41c.25.72.45,5.31-.17,4.42-.12-.22-.2-3,.17-4.42Z" style="fill: url(#linear-gradient-6); stroke-width: 0px;"/>
        <path d="M61,90.91c.27-.11.28-.17.6-.03.33.15.36,0,.65-.02.28-.02.36.15.66.04.35-.13.24-.13.62,0-.19-.78-1.24-.47-1.24-.47-.05,0-1.07-.33-1.28.48h0Z" style="fill: url(#linear-gradient-7); fill-rule: evenodd; stroke-width: 0px;"/>
      </g>
      <path d="M58.43,86.36c.5,1.23,1.98,1.38,2.31,1.82.21.29.07.42.46.72.3.23.46.24.82.21.83-.06,1.66.47,2.07-1.04.69-.18,1.93-1.01,1.99-1.71-.92.37-1.13.58-1.9.26-1.04-.43-1.16.41-1.79.39-.64-.02-.77-.83-1.77-.36-.99.46-2.18-.29-2.18-.29Z" style="fill: url(#linear-gradient-8); fill-rule: evenodd; stroke-width: 0px;"/>
    </g>
    <g>
      <path d="M57.46,79.88c.34.18.65-.13.91.29-.73.56-1.65.41-2.45.64-.43.12-.93.02-1.39,0-.27-.02-.62-.05-.7-.32-.12-.42.3-.33.53-.4.24-.08.22-.23.13-.39-.1-.17-.21-.37-.46-.32-.33.07-.67.12-.8.52-.16.5-.54.29-.84.2-.25-.07-.6-.12-.63-.43-.03-.35.32-.46.58-.62,2.14-1.31,4.35-1.81,6.68-.49.29.16.63.29.64.71,0,.32-.27.33-.47.45-.25.14-.45.16-.56-.15-.12-.34-.35-.67-.71-.6-.47.08-.25.62-.47.93Z" style="fill: url(#linear-gradient-9); stroke-width: 0px;"/>
      <path d="M73.32,80.07c-.67-.32-1.38.65-2.12-.45-.65-.96-.92,0-1.16.53.28.23.59-.15.87.06-.53.78-3.67.65-4.72-.2.31-.42.68.18,1-.06-.24-.88-.47-.99-1.19-.56-.22.13-.35.41-.66.42-.27.01-.47-.07-.58-.31-.12-.24.05-.35.24-.46,2.93-1.76,4.35-1.81,6.9-.11.47.31.98.55,1.47.83-.01.1-.03.2-.04.3Z" style="fill: url(#linear-gradient-10); stroke-width: 0px;"/>
      <path d="M64.94,78.19c.72-1.05,1.78-1.34,2.82-1.45,1.89-.2,3.46.7,4.94,1.74.14.1.29.25.2.42-.15.26-.34.07-.51-.02-.62-.33-1.24-.69-1.87-.99-1.57-.75-3.13-.7-4.66.13-.22.12-.43.35-.92.17Z" style="fill: url(#linear-gradient-11); stroke-width: 0px;"/>
      <path d="M51.43,78.86c2.74-2.55,6.11-2.57,7.39-.97-1.03-.17-1.97-.4-2.94-.4-.99,0-1.84.22-2.65.8-.49.35-1,.89-1.79.57Z" style="fill: url(#linear-gradient-12); stroke-width: 0px;"/>
    </g>
    <path d="M65.04,44.08c-.09-.91.07-1.78.22-2.65.43-2.45,1.34-4.71,2.53-6.86.33-.6.57-1.24.63-1.94.04-.51-.03-.96-.52-1.22-.22-.12-.15-.22.01-.3.43-.23.87-.45,1.3-.69.2-.11.32,0,.44.14.52.63.56,1.35.34,2.11-.25.85-.73,1.58-1.16,2.34-.93,1.64-1.99,3.21-2.61,5.03-.4,1.18-.75,2.38-1.05,3.59-.04.15-.08.3-.13.45Z" style="fill: url(#linear-gradient-13); stroke-width: 0px;"/>
    <path d="M45.37,48.59c-.56-.39-1.09-.76-1.61-1.13-1.49-1.07-3.2-1.63-4.91-2.17-.49-.15-.97-.31-1.43-.54-.56-.28-1.01-.66-1.11-1.37-.06-.44-.03-.5.37-.62.29-.09.59-.16.89-.24.1-.02.22-.05.16.14-.23.63.15.96.53,1.27.44.35.96.56,1.48.75,2.03.72,3.78,1.92,5.33,3.48.11.11.24.22.31.44Z" style="fill: url(#linear-gradient-14); stroke-width: 0px;"/>
    <ellipse cx="80.64" cy="29.77" rx=".81" ry=".6" style="fill: #fff; stroke-width: 0px;"/>
    <path d="M43.3,45.21c-.26.14-.48.22-.79.29-.22.04-.97.18-.42-.18,1.08-.68,1.97-1.63,2.66-2.7.26-.31.11.43.09.53-.04.21-.09.36-.16.53-.28.64-.76,1.19-1.36,1.52h0Z" style="fill: url(#linear-gradient-15); stroke-width: 0px;"/>
    <path d="M43.46,46.9c1.16-.72,2.05-1.62,2.75-2.73.28.93-1.58,2.81-2.75,2.73Z" style="fill: url(#linear-gradient-16); stroke-width: 0px;"/>
    <path d="M88.85,61.26c.12.27.23.47.43.72.15.17.64.75.44.13-.4-1.21-.49-2.51-.36-3.77,0-.4-.36.26-.41.36-.1.19-.16.34-.21.51-.19.67-.16,1.4.09,2.04h0Z" style="fill: url(#linear-gradient-17); stroke-width: 0px;"/>
    <path d="M87.66,62.46c-.44-1.29-.57-2.55-.4-3.86-.81.54-.55,3.18.4,3.86Z" style="fill: url(#linear-gradient-18); stroke-width: 0px;"/>
    <g>
      <path d="M31.6,64.58c-.51.03-1.04.05-1.31-.49-.08-.16-.16-.07-.22,0-.18.22-.35.44-.51.67-.22.3-.2.37.16.61.58.39,1.21.36,1.83.21.52-.13,1-.31,1.49-.5,1.7-.66,3.41-1.31,5.33-1.5.67-.07,1.34-.15,2.05-.23-.21-.09-.39-.09-.55-.09-2.3-.08-4.5.19-6.58.93-.54.19-1.08.36-1.68.4Z" style="fill: url(#linear-gradient-19); stroke-width: 0px;"/>
      <path d="M40.31,59.64c-.93-.32-1.84-.67-2.73-1.05-1.38-.59-2.53-1.46-3.75-2.25-.56-.36-1.1-.76-1.75-1.01-.58-.22-1.14-.26-1.66.04-.12.07-.21.14-.13.29.16.31.3.63.46.95.06.12.13.18.23.04.23-.31.59-.32.98-.24.54.1,1.03.33,1.47.61,1.6,1.01,2.38,1.8,4.26,2.32.67.19,2.26.42,2.97.45-.12-.04-.23-.09-.35-.13Z" style="fill: url(#linear-gradient-20); stroke-width: 0px;"/>
      <path d="M100.89,59.47c-.03-2.14-.55-4.17-.17-6.32.11-1.63.05-3.36-.69-4.72.65,2.74.26,5.95-1.59,8.16-.25-1.26.4-1.41,1.06-2.02.67-2.1.93-4.2.35-6.26-.81-2.6-2.68-3.15-4.56-2.57,2.17-3.5.78-7.45-4.37-9.04-.84.04-.92,1.11-2.07-.06,2.77-.6,4.87.66,6.65,2.9-.58-1.66-2.52-3.16-4.02-3.95-1.32-.79-2.18-2.23-3.44-3.11-1.95-1.57-3.01-4.66-5.59-5.27,2.24,1.42,3.88,4.08,3.79,6.95-.96-.67-.55-1.33-.43-2.24-1.16-3.76-5.45-7.14-8.29-3.63-.29-2.2-1.49-4.09-3.9-4.74-2.17-.54-5.6-.13-7.15,1.61-.16,1.05-.8,1.54-1.8,1.41,2.04-2.97,5.55-3.94,8.78-3.28-1.64-.94-3.65-.85-5.44-.49-2.34.8-4.73.26-7.12.46-2.99.27-6.59-1.72-9.39.02,3.39-.55,6.41.16,8.78,3.31-1.11.07-1.63-.35-1.83-1.49-3.73-3.19-10.86-2.27-11.19,3.85-2.84-3.33-7.06.02-8.2,3.74.13.91.54,1.57-.43,2.24-.09-2.87,1.55-5.53,3.79-6.95-2.58.61-3.64,3.7-5.59,5.27-1.26.87-2.12,2.32-3.44,3.11-1.5.79-3.44,2.29-4.02,3.95,1.78-2.24,3.88-3.5,6.65-2.9-1.15,1.17-1.23.1-2.07.06-5.15,1.59-6.54,5.54-4.37,9.04-1.87-.58-3.75-.03-4.56,2.57-.58,2.07-.32,4.16.35,6.26.65.61,1.3.76,1.06,2.02-1.85-2.21-2.24-5.42-1.59-8.16-.75,1.36-.8,3.09-.69,4.72.38,2.15-.14,4.18-.17,6.32-.02,2.65-1.59,5.63-.62,8.26-.14-3.06.54-5.61,2.8-7.28-.08,1.78-.81,1.02-1.38,1.63-2.05,3.19-1.86,9.39,2.39,10.21,5.06.84,7.31-6.23,15.31-5.33-3.01-2.35-9.1,1.23-11.58,2.84-6.5,3.65-7.08-4.1-3.27-7.92.72-.51,1.13-1.19,1.32-1.94.25.07.54.15.97.21.72.09,1.49.15,2.2-.28-.55-.18-.74-.02-.97-.36.22-.31.67-.34.86-.88-1.01.52-1.98.53-2.94.38.02-1.35-.54-2.8-1.33-3.85-3-6.17.37-10.67,5.22-5.08,1.9,2.39,2.23,6.18,10.53,7.69-5.88-3.79-8.24-5.7-9.53-8.24-.06-.13-.13-.25-.21-.38,2.31.3,5.28-1.18,12.71,3.59-6.38-6.67-10.31-4.75-12.55-5.33-7.46-2.65-2.81-9.13,3.02-8.61.51.04,1.02-.03,1.47-.28.18-.1.35-.21.51-.34.08.12.17.26.29.4.45.58.95,1.16,1.75,1.36-.26-.52-.51-.54-.43-.94.38-.07.72.23,1.22-.01-.97-.31-1.62-.89-2.16-1.57.61-.91.87-2.11.95-3.25.5-3.05,4.09-8.31,6.41-3.75,2.17,4.36.96,11.11,5.89,16.04-2.34-4.67-2.61-8.45-3.18-11.83,1.25,1.8,2.95,3.67,4.99,5.44-.41.34-.71.68-.74,1.02-.02.2.03.38.15.54,0,0,1.83,3.98,3.12,5.5-1.41,1.27-2.09,3.03-2.75,4.72-.25.64-.51,1.31-.81,1.94-2.13,4.55-3.28,9.61-3.32,14.62h.12c-.06.04-.12.08-.17.12-.56.39-1.11.84-1.4,1.48-.28.61-.24,1.48.32,1.98-.06.1-.1.24-.07.43.03.18-.08.4-.31.61-.08.07-.17.14-.26.21-.19.14-.38.29-.54.49-.28.35-.39.91-.06,1.28.07.08.16.15.23.2.05.04.14.11.15.12,0,.02-.04.06-.06.09-.03.04-.06.08-.09.13-.06.11-.09.24-.1.38-1.24.07-2.23,1.09-2.57,2.11-.32.94-.27,2.05.14,3.37.14.46.31.91.48,1.35.21.56.43,1.14.58,1.72.48,1.83.32,3.78-.46,5.51-.16.36-.35.72-.54,1.07-.27.51-.56,1.04-.76,1.61-.31.86-.33,1.6-.07,2.21.37.87,1.11,1.33,2.08,1.33.14,0,.29,0,.44-.03.92-.12,1.77-.58,2.39-1,2.33,3.55,6.81,6,12.02,5.99,5.81,0,10.18-2.84,12.32-6.42.57.48,1.7,1.28,2.96,1.44.15.02.3.03.44.03.98,0,1.71-.46,2.08-1.33.26-.61.24-1.35-.07-2.21-.2-.56-.49-1.09-.76-1.61-.18-.35-.38-.71-.54-1.07-.77-1.73-.93-3.68-.46-5.51.15-.58.37-1.16.58-1.72.17-.44.34-.89.48-1.35.41-1.33.46-2.43.14-3.37-.34-1.02-1.33-2.04-2.57-2.11,0-.13-.03-.26-.1-.38-.02-.04-.05-.09-.09-.13-.02-.03-.05-.07-.06-.09.01-.01.1-.08.15-.12.07-.06.16-.12.23-.2.33-.37.22-.93-.06-1.28-.16-.2-.35-.35-.54-.49-.09-.07-.18-.14-.26-.21-.23-.2-.35-.43-.31-.61.04-.19,0-.33-.07-.43.57-.5.6-1.37.32-1.98-.29-.64-.84-1.09-1.4-1.48-.06-.04-.11-.08-.17-.12h.12c-.04-5.01-1.19-10.06-3.32-14.62-.3-.63-.56-1.3-.81-1.94-.66-1.7-1.34-3.45-2.75-4.72,1.29-1.52,3.12-5.5,3.12-5.5.11-.16.17-.34.15-.54-.04-.39-.43-.79-.94-1.18,1.55-1.24,3.16-2.39,4.61-3.81.25-.2.48-.42.71-.65-.45,2.97-.95,6.29-2.93,10.24,4.93-4.92,3.72-11.68,5.89-16.04,2.31-4.56,5.91.7,6.41,3.75.09,1.34.44,2.77,1.31,3.71-.13.09-.27.2-.43.34-.55.48-1.1,1.01-1.25,1.83.5-.29.51-.54.92-.49.09.37-.19.73.09,1.22.26-1,.8-1.7,1.46-2.28.29.16.62.28.99.35,6.06-.95,11.19,5.82,3.52,8.55-2.24.57-6.17-1.35-12.55,5.33,7.44-4.77,10.4-3.29,12.71-3.59-.07.12-.14.25-.21.38-1.29,2.54-3.66,4.44-9.53,8.24,8.3-1.51,8.63-5.3,10.53-7.69,4.85-5.59,8.23-1.1,5.22,5.08-.74.99-1.27,2.32-1.33,3.59-.23-.02-.51-.04-.88-.02-.73.04-1.49.12-2.11.68.57.08.74-.11,1.02.18-.16.35-.6.46-.68,1.02.86-.67,1.78-.87,2.71-.9.15.85.57,1.62,1.37,2.18,3.81,3.83,3.23,11.57-3.27,7.92-2.47-1.61-8.57-5.2-11.58-2.84,8-.9,10.25,6.17,15.31,5.33,4.26-.83,4.44-7.02,2.39-10.21-.57-.6-1.3.15-1.38-1.63,2.26,1.67,2.94,4.22,2.8,7.28.97-2.63-.6-5.61-.62-8.26ZM50.88,34.66c-5.34-8.69,2.32-11.28,8.13-5.73.44.66,1.04,1.14,1.71,1.44-.85.67-1.46,1.63-1.66,2.67-.04.21-.06.41-.07.62-.4-.06-.8-.14-1.2-.23-1.62-.34-.04.76.43,1.09.33.22.63.39.93.53.18.64.5,1.23.93,1.74v.43c-.5-.07-1-.17-1.51-.29.34.39.88.69,1.51.91v.44c-.47.05-.95.2-1.38.33l-.06.02s0,0-.01,0c-.39-1.18-.88-2.32-1.5-3.43-.37-.66-.71-1.34-.87-2.09-.14-.65-.25-1.32.48-1.73.22-.12.07-.21-.04-.28-.35-.2-.7-.39-1.06-.58-.48-.24-.57-.21-.85.27-.46.79-.32,1.58.01,2.36.27.64.63,1.24.99,1.84.76,1.27,1.52,2.54,2.13,3.88-.76.3-1.48.69-2.15,1.15h0s-.11.08-.18.12c-.15.1-.3.21-.45.31-2.83-2.86-2.46-3.17-4.25-5.8ZM52.9,94.32c-.28-.2-.55-.39-.8-.59.84-1.08,1.42-2.24,1.67-3.35,1.46,1.41,3.38,2.52,5.71,3.29.96.32,1.79.57,2.74.67h0s.02,0,.03,0c.01,0,.02,0,.03,0h0c.94-.11,1.78-.36,2.74-.67,2.33-.77,4.25-1.88,5.71-3.29.22.99.7,2.01,1.39,2.98-5.05,4.47-13.71,4.86-19.21.97ZM71.27,70.7c1.11.62,1.85,1.18,2.4,1.83.52.61.71,1.43.62,2.65-.01.19-.03.38-.03.59-.34-.23-.75-.41-1.15-.56-2.72-.82-6.63-.58-9.27,1.15-.1.07-.04.22.09.2,4.81-.6,5.05-.58,5.05-.58,2.17-.09,3.94.25,5.54,1.22.02.05.05.11.07.16.31.62.27.87.16,1.68-.22,1.57-.5,3.26-.99,4.92-.69,2.32-1.71,4.21-3.05,5.63-1.44,1.54-3.42,2.73-5.88,3.55-1.01.34-1.79.55-2.58.64-.79-.09-1.56-.3-2.58-.64-2.46-.82-4.44-2.01-5.88-3.55-1.33-1.42-2.36-3.32-3.05-5.63-.49-1.66-.77-3.35-.99-4.92-.12-.81-.15-1.05.16-1.68.03-.05.05-.11.07-.16,1.59-.96,3.37-1.3,5.54-1.22,0,0,.25-.02,5.09.59.12.01.18-.12.09-.18-2.64-1.75-6.58-2-9.31-1.17-.41.14-.81.33-1.15.56,0-.2-.01-.4-.03-.59-.09-1.22.1-2.03.62-2.65.55-.65,1.29-1.22,2.4-1.83,2.74-1.52,5.87-2.34,9.02-2.44,3.15.1,6.28.91,9.02,2.44ZM73.43,35.47c-1.29,1.75-3.02,3.13-4.55,4.67-.06-.04-.11-.07-.15-.1h0c-.89-.62-1.86-1.09-2.88-1.41l-.06-.02c-.43-.14-.91-.29-1.38-.33v-.28c.8-.2,1.44-.55,1.7-1.04-.57.13-1.13.23-1.7.3v-.47c.41-.47.71-1.03.9-1.63.01,0,.02,0,.03-.01.43-.17.79-.35,1.24-.65.22-.15,1.8-1.21.79-1.12-.62.13-1.24.24-1.86.32,0-.22-.03-.44-.07-.66-.19-.99-.76-1.91-1.54-2.57.26-.1.51-.22.75-.38.87-.46,1.17-1.27,1.92-1.77,7.05-5.5,12.67-.6,6.87,7.14Z" style="fill: url(#linear-gradient-21); stroke-width: 0px;"/>
      <path d="M81.88,35.64c-.06-.19-.18-.19-.33-.17-.65.09-1.07.52-1.35,1.13-.32.69-.44,1.43-.61,2.16-.36,1.59-.61,3.2-1.25,4.71-.42.98-.87,1.95-1.36,2.89-.06.12-.12.24-.18.36.55-.52.94-1.17,1.33-1.81.12-.2.24-.41.35-.61.27.81,1.59,1.8,2.6,1.93-.44.36-.86.75-1.27,1.16-.11.11-.24.22-.31.44.56-.39,1.09-.76,1.61-1.13,1.49-1.07,3.2-1.63,4.91-2.17.49-.15.97-.31,1.43-.54.56-.28,1.01-.66,1.11-1.37.06-.44.03-.5-.37-.62-.29-.09-.59-.16-.89-.24-.1-.02-.22-.05-.16.14.23.63-.15.96-.53,1.27-.44.35-.96.56-1.48.75-1.42.51-2.7,1.24-3.87,2.18-1.04-.49-1.92-1.15-2.67-1.98.84-1.57,1.42-3.26,1.84-5.01.14-.57.35-1.12.7-1.59.25-.34.55-.59.97-.46.19.06.2-.05.16-.2-.12-.4-.26-.8-.37-1.2Z" style="fill: url(#linear-gradient-22); stroke-width: 0px;"/>
      <path d="M85.01,62.5c-.17,0-.34,0-.55.09.71.08,1.38.16,2.05.23,1.92.2,3.62.84,5.33,1.5.48.19.97.37,1.49.5.63.15,1.25.17,1.83-.21.36-.24.38-.3.16-.61-.16-.23-.34-.45-.51-.67-.06-.07-.14-.16-.22,0-.27.53-.8.52-1.31.49-.59-.04-1.14-.21-1.68-.4-2.08-.73-4.28-1-6.58-.93Z" style="fill: url(#linear-gradient-23); stroke-width: 0px;"/>
      <path d="M93.89,55.87c.1.14.18.08.23-.04.15-.32.3-.63.46-.95.07-.15-.01-.22-.13-.29-.52-.29-1.08-.26-1.66-.04-.65.25-1.19.65-1.75,1.01-1.22.79-2.38,1.65-3.75,2.25-.89.38-1.8.74-2.73,1.05-.12.04-.23.08-.35.13.71-.03,2.3-.26,2.97-.45,1.88-.52,2.66-1.31,4.26-2.32.44-.28.93-.5,1.47-.61.39-.07.75-.07.98.24Z" style="fill: url(#linear-gradient-24); stroke-width: 0px;"/>
      <path d="M35.49,62.82c.21-.25.32-.45.43-.72h0c.25-.65.28-1.38.09-2.05-.05-.18-.11-.32-.21-.51-.05-.09-.41-.76-.41-.36.13,1.26.05,2.56-.36,3.77-.2.63.3.05.44-.13Z" style="fill: url(#linear-gradient-25); stroke-width: 0px;"/>
      <path d="M37.52,59.44c.17,1.31.04,2.57-.4,3.86.95-.68,1.21-3.31.4-3.86Z" style="fill: url(#linear-gradient-26); stroke-width: 0px;"/>
      <path d="M79.66,42.18c-.3-.27-.05.44-.01.54.07.2.14.35.24.5.37.59.93,1.06,1.58,1.3h0c.28.1.5.15.83.17.23,0,.99.03.39-.24-1.17-.51-2.19-1.32-3.03-2.27Z" style="fill: url(#linear-gradient-27); stroke-width: 0px;"/>
    </g>
    <g>
      <path d="M31.68,29.89l.16-.5c.05-.16.07-.29.04-.39-.02-.1-.11-.24-.27-.43l-1.61-1.91-4.24-1.88c-.73-.33-1.28-.54-1.63-.64-.35-.1-.65-.15-.88-.16h-.35s-.26-.32-.26-.32l4.46-3.75.26.31-.22.63c-.04.11-.05.22-.03.32.02.1.06.19.13.26.04.05.09.09.16.14.07.05.15.1.25.15l4.58,2.32-.56.47-1.11-3.72c-.08-.27-.17-.52-.27-.73s-.21-.39-.32-.53c-.11-.13-.26-.23-.44-.29-.18-.06-.4-.05-.67.03l-.54.15-.26-.31,3.07-2.58.26.31-.05.35c-.04.27-.05.61,0,1.03.04.42.16,1.14.35,2.17l.6,3.2,2.18,2.6c.14.17.26.28.36.34.1.06.23.07.4.04l.54-.09.26.31-4.09,3.44-.26-.31Z" style="fill: #fff; stroke-width: 0px;"/>
      <path d="M48.4,18.92c-.92-.26-1.71-.76-2.35-1.5-.65-.74-1.1-1.69-1.38-2.83-.27-1.13-.29-2.18-.04-3.14.24-.96.72-1.77,1.43-2.42.71-.65,1.6-1.11,2.66-1.36,1.06-.25,2.06-.25,2.98.01.92.26,1.71.77,2.36,1.51.65.75,1.11,1.69,1.38,2.82.27,1.14.29,2.19.06,3.14-.23.95-.7,1.75-1.41,2.4-.7.65-1.6,1.11-2.68,1.37-1.08.26-2.09.26-3.01,0ZM52.04,17.53c.16-.27.22-.76.17-1.47-.05-.7-.24-1.74-.57-3.12-.33-1.39-.64-2.41-.91-3.08-.28-.67-.55-1.08-.82-1.25-.27-.17-.6-.21-.99-.11-.39.09-.67.28-.84.55-.17.27-.23.76-.17,1.47.05.7.24,1.74.57,3.12.33,1.39.64,2.41.91,3.08.28.67.55,1.08.83,1.25.27.17.61.21,1,.11.39-.09.67-.28.83-.55Z" style="fill: #fff; stroke-width: 0px;"/>
      <path d="M69.92,16.48c-.74-1.24-.88-2.74-.44-4.49.29-1.16.76-2.11,1.4-2.83.64-.73,1.45-1.21,2.43-1.45.98-.24,2.11-.19,3.38.13.75.19,1.44.43,2.06.71.63.29,1.12.55,1.47.79l-.92,3.65-.39-.1-.58-1.62c-.03-.12-.06-.2-.08-.25-.02-.05-.05-.13-.08-.24-.15-.43-.28-.77-.39-1.02-.11-.25-.27-.47-.46-.67-.2-.19-.45-.33-.76-.41-.42-.11-.82-.06-1.2.14-.38.2-.75.62-1.11,1.28s-.69,1.59-1,2.82c-.29,1.14-.43,2.09-.42,2.84.01.75.15,1.33.41,1.73.26.4.63.66,1.11.78.09.02.17.04.25.05.08,0,.14.01.2.02l.69-2.72c.04-.14.05-.25.05-.34,0-.09-.02-.16-.05-.22-.03-.06-.09-.13-.18-.21l-.55-.49.1-.41,4.97,1.26-.1.41-.39.16c-.17.06-.28.14-.35.22-.07.08-.13.24-.19.46l-.77,3.03c-.55.03-1.19.02-1.92-.04-.73-.06-1.48-.18-2.26-.38-1.9-.48-3.22-1.34-3.96-2.58Z" style="fill: #fff; stroke-width: 0px;"/>
      <path d="M87.47,24.97h.29c.25,0,.52-.05.82-.14.3-.09.67-.25,1.12-.47.45-.22,1.03-.53,1.76-.94l4.05-2.28c.96-.53,1.72-.99,2.28-1.36l2.2,1.93-3.47,8.63c-.16.38-.27.69-.34.91-.07.22-.12.41-.13.55-.02.14-.01.28.01.41l.07.32-.26.3-4.28-3.74.26-.3.7.22c.14.05.24.06.33.02.08-.04.16-.1.22-.17.07-.09.16-.23.26-.43l3.48-7.68.42.37-5.19,3.2c-.28.17-.57.36-.87.58-.3.22-.52.42-.68.6-.18.21-.31.45-.39.71-.08.26-.05.54.09.84l.26.55-.26.3-3-2.62.26-.3ZM91.67,23.77l3.57,3.12-.64.74-3.57-3.12.64-.73Z" style="fill: #fff; stroke-width: 0px;"/>
    </g>
    <text/>
    <g>
      <path d="M6.36,63.84c.09-.69.22-1.44.39-2.24l3.85-.24.02.39-1.86,1.44c-.37.29-.68.56-.91.8-.23.24-.42.51-.55.8-.13.29-.19.62-.16.98.02.31.09.57.21.79.12.22.29.39.49.5.2.11.43.16.69.14.37-.02.66-.17.88-.44.22-.27.44-.65.67-1.13l.82-1.74c.35-.77.78-1.42,1.27-1.95.49-.53,1.16-.83,2-.88.67-.04,1.27.1,1.8.44.53.33.95.84,1.28,1.51.32.67.51,1.48.57,2.43.04.65.02,1.34-.05,2.07-.08.73-.17,1.32-.29,1.77l-3.52.22-.03-.4,1.94-1.68c.43-.38.73-.72.9-1.03.17-.31.24-.63.22-.97-.03-.41-.16-.73-.39-.95-.24-.22-.52-.32-.85-.3-.38.02-.7.21-.96.55-.26.34-.53.83-.82,1.46l-.8,1.76c-.2.44-.41.83-.64,1.17-.23.34-.54.65-.95.92-.41.27-.9.43-1.49.47-.68.04-1.29-.1-1.84-.43-.54-.33-.98-.84-1.32-1.52-.34-.69-.54-1.53-.6-2.52-.05-.76-.03-1.49.06-2.18Z" style="fill: #fff; stroke-width: 0px;"/>
      <path d="M10.76,83.71l.27.1c.23.09.51.14.82.15.31.02.72,0,1.21-.05.49-.05,1.15-.14,1.98-.27l4.59-.72c1.09-.16,1.96-.32,2.61-.48l1.39,2.58-6.27,6.87c-.28.3-.5.55-.64.73-.15.18-.25.34-.32.47-.07.13-.11.26-.13.39l-.05.33-.35.19-2.7-5,.35-.19.58.45c.11.09.21.14.3.13.09,0,.18-.04.27-.08.1-.05.23-.16.39-.32l5.95-5.98.27.49-5.98,1.19c-.32.06-.66.14-1.01.24-.35.1-.64.21-.85.32-.25.13-.45.31-.61.53-.16.22-.23.49-.21.82l.05.61-.35.19-1.89-3.5.35-.19ZM15.11,84.06l2.25,4.17-.86.46-2.25-4.17.86-.46Z" style="fill: #fff; stroke-width: 0px;"/>
      <path d="M25.23,104.32l.51.05c.29.02.56-.06.82-.23.26-.17.58-.52.97-1.03,2.49-3.29,3.81-5.03,3.94-5.23.12-.18.21-.33.25-.46.04-.13.03-.27-.05-.44l-.4-.87.23-.33,4.2,2.88-1.42,5,4.03-3.21,4.14,2.84-.23.33-.53-.05c-.12,0-.22,0-.29.02-.07.02-.14.06-.2.13-.06.06-.14.16-.23.3l-4.57,6.67c-.13.19-.21.33-.24.44-.03.11,0,.24.08.39l.23.49-.23.33-4.32-2.96.23-.33.57.05c.12,0,.21,0,.28,0,.06-.01.13-.05.2-.12.07-.06.15-.17.25-.31l5.2-7.59.22.25-8.01,6.29-.87-.6,2.56-9.87.33.12-4.22,6.63c-.35.55-.56.98-.62,1.28-.07.31,0,.6.18.9l.32.52-.23.33-3.31-2.27.23-.33Z" style="fill: #fff; stroke-width: 0px;"/>
      <path d="M51.71,107.83c-.06-.23-.13-.4-.2-.53-.07-.13-.15-.24-.24-.34l-.24-.23.05-.4,5.69.73-.05.4-.7.19c-.14.03-.23.09-.28.18-.05.08-.08.18-.09.28-.02.12-.01.25.01.39l1.32,8.57-.6-.08,2.15-5.05.02-.04c.32-.76.54-1.31.66-1.65.13-.34.21-.65.24-.92.04-.29,0-.54-.08-.75-.09-.21-.27-.41-.54-.59l-.48-.31.05-.4,3.95.51-.05.4-.24.16c-.22.15-.42.34-.6.56-.19.23-.42.6-.7,1.11-.28.52-.69,1.3-1.21,2.34l-1.7,3.44c-.25.52-.64,1.34-1.16,2.46l-2.83-.36-1.94-9.1c-.08-.41-.16-.72-.22-.95Z" style="fill: #fff; stroke-width: 0px;"/>
      <path d="M74.49,116.74l.37-.39c.11-.13.18-.24.2-.34.02-.1,0-.26-.07-.5l-2.13-7.8c-.06-.23-.13-.38-.2-.47-.07-.08-.19-.14-.35-.19l-.5-.14-.11-.39,5.16-1.41.11.39-.36.37c-.08.09-.14.16-.17.23-.03.07-.04.15-.04.24,0,.09.03.22.07.37l2.13,7.8c.06.23.13.38.2.46s.19.14.35.19l.51.15.11.39-5.16,1.41-.11-.39Z" style="fill: #fff; stroke-width: 0px;"/>
      <path d="M92.6,109.41l.19-.51c.04-.11.07-.2.07-.27,0-.07-.01-.14-.06-.22-.04-.08-.12-.19-.23-.32l-5.03-6.34c-.15-.19-.27-.3-.37-.35-.1-.05-.23-.06-.39-.03l-.52.07-.25-.32,4.07-3.23c1.54-1.22,3.01-1.78,4.42-1.67,1.41.1,2.65.84,3.74,2.21,1.11,1.4,1.57,2.77,1.38,4.12-.19,1.35-1.02,2.6-2.48,3.77l-4.3,3.41-.25-.32ZM97.22,104.76c.06-.35-.07-.83-.37-1.44-.31-.61-.87-1.43-1.68-2.45-.89-1.12-1.61-1.88-2.17-2.28-.56-.41-1.01-.58-1.34-.52-.33.06-.72.26-1.14.6l-.4.32,5.26,6.63c.12.15.24.26.35.33.11.06.24.08.37.05.14-.03.3-.12.49-.27.36-.29.58-.61.63-.96Z" style="fill: #fff; stroke-width: 0px;"/>
      <path d="M109.95,91.8l-.07-.28c-.07-.24-.19-.49-.36-.76-.17-.27-.42-.58-.75-.96-.33-.37-.79-.85-1.37-1.45l-3.27-3.3c-.77-.78-1.41-1.4-1.92-1.84l1.27-2.64,9.24,1.06c.41.05.74.08.97.09s.43,0,.57-.02c.14-.02.27-.06.39-.12l.3-.15.36.18-2.47,5.12-.36-.18.02-.73c.01-.14-.01-.25-.07-.32-.06-.07-.13-.13-.23-.17-.1-.05-.26-.09-.49-.13l-8.33-1.32.24-.5,4.46,4.15c.23.23.5.46.79.68.29.23.54.39.76.5.25.12.51.18.79.19.27,0,.53-.1.79-.31l.47-.39.36.18-1.73,3.59-.36-.18ZM107.68,88.07l2.06-4.27.88.42-2.06,4.27-.88-.42Z" style="fill: #fff; stroke-width: 0px;"/>
      <path d="M117.95,68.53l-.18-.22c-.16-.19-.38-.36-.65-.53-.27-.17-.63-.35-1.09-.54-.46-.19-1.08-.43-1.86-.72l-4.37-1.58c-1.03-.38-1.87-.66-2.52-.84l.02-2.93,8.81-3c.39-.13.7-.24.92-.33.22-.09.39-.18.51-.26.12-.08.22-.17.3-.28l.2-.26h.4s-.04,5.69-.04,5.69h-.4s-.29-.67-.29-.67c-.05-.13-.12-.22-.2-.26-.08-.04-.18-.06-.28-.06-.11,0-.28.03-.5.09l-8.09,2.37v-.56s5.82,1.84,5.82,1.84c.31.11.64.2,1,.28.36.08.66.12.9.12.28,0,.54-.05.79-.16.25-.11.44-.32.58-.62l.25-.56h.4s-.03,3.98-.03,3.98h-.4ZM114.3,66.13l.03-4.74h.98s-.03,4.75-.03,4.75h-.98Z" style="fill: #fff; stroke-width: 0px;"/>
    </g>
  </g>
  <path d="M75.43,92.67c-.36,0-.71-.24-.91-.51-.59-.8-.64-1.8-.15-2.64-.44-.87-.59-1.62-.46-2.29.15-.79.7-1.48,1.22-2.15l.12-.15c.74-.94,1.47-1.98,2.37-3.37.32-.49.56-.9.61-1.35.04-.41-.13-.92-.62-1.15-.23-.11-.56-.12-.83-.04-.13.04-.35.14-.42.35l-.42-.09c.09-.25.33-.46.68-.57.4-.13.87-.11,1.22.06.57.27.9.85.83,1.47-.06.55-.39,1.06-.66,1.47-.9,1.4-1.64,2.45-2.38,3.4l-.12.15c-.5.64-1.02,1.3-1.16,2.03-.12.62.03,1.33.45,2.16.17.32.36.64.55.96.22.37.46.76.65,1.16.19.39.22.87-.26,1.06-.1.04-.2.06-.3.06Z" style="fill: #fff; stroke-width: 0px;"/>
  <path d="M48.77,92.62c-.47-.19-.44-.67-.26-1.06.19-.4.42-.78.65-1.16.19-.31.38-.63.55-.96.43-.83.58-1.54.45-2.16-.14-.73-.66-1.39-1.16-2.03l-.12-.15c-.74-.95-1.48-2-2.38-3.4-.27-.41-.6-.92-.66-1.47-.07-.62.26-1.2.83-1.47.35-.16.82-.19,1.22-.06.34.11.59.32.68.57l-.42.09c-.07-.21-.29-.3-.42-.35-.27-.09-.6-.07-.83.04-.49.23-.67.74-.62,1.15.05.45.3.86.61,1.35.9,1.39,1.63,2.43,2.37,3.37l.12.15c.52.67,1.07,1.36,1.22,2.15.13.67-.02,1.42-.46,2.29.49.84.43,1.84-.15,2.64-.2.27-.55.51-.91.51-.1,0-.2-.02-.3-.06Z" style="fill: #fff; stroke-width: 0px;"/>
  <path d="M62.21,54.75c.46,1.37.85,2.11,1.66,3.03.7.79,1.62,1.49,2.11,2.62,1.16,2.68-.89,5.16-3.65,5.22-2.84.06-4.86-2.48-3.8-5.18.6-1.53,2.09-2.27,3.03-4.05.31-.59.39-1.01.65-1.63h0ZM62.03,52.11c-.07.11-.11.19-.17.28-.74,1.14-2.07,2.28-3.21,3.1-1.28.92-2.73,2.05-3.26,3.94-1.1,3.93,3,7.25,6.97,7.19,4.05-.06,7.89-3.35,6.75-7.28-.79-2.71-3.5-3.65-5.27-5.51-1.39-1.45-.87-1.13-1.58-2.01l-.22.28h0Z" style="fill: #fff; fill-rule: evenodd; stroke-width: 0px;"/>
  <path d="M62.21,58.02c-.53,1.06-1.36,2.1-1.86,3.29-.61,1.45.25,2.94,1.96,2.9,1.59-.03,2.45-1.5,1.82-2.95-.24-.55-.57-1.1-.88-1.64-.29-.5-.62-1.3-1.04-1.59h0Z" style="fill: #fff; fill-rule: evenodd; stroke-width: 0px;"/>
  <path d="M62.26,30.32s-1.03,1.71-1.41,2.68c-.46,1.18.19,2.4,1.49,2.37,1.21-.03,1.86-1.22,1.38-2.41-.18-.45-.43-.9-.67-1.34-.22-.41-.53-.92-.79-1.3h0Z" style="fill: #fff; fill-rule: evenodd; stroke-width: 0px;"/>
  <path d="M62.91,30.04s.01,0,.02,0c-.36.02-.72.04-1.09.07.19.83-.13,1.04-.22,2.13-.06.69-.08,1.42.36,2.08.15-.53,0-.71.31-.94.31.19.35.63.87.78-.79-1.4-.52-2.75-.24-4.12Z" style="fill: url(#linear-gradient-28); stroke-width: 0px;"/>
</svg>